<svg width="18" height="18" viewBox="0 0 18 18" fill="none" xmlns="http://www.w3.org/2000/svg">
    <path
    d="M17.2868 4.77607L12.3516 6.90098V5.3402C12.3516 4.91935 11.9829 4.62769 11.6384 4.77603L6.70314 6.90094V5.34016C6.70314 4.91931 6.33449 4.62765 5.98992 4.77599L0.341473 7.20808C0.13602 7.29654 0 7.52125 0 7.77224V17.3972C0 17.7301 0.236109 18 0.527344 18H17.4727C17.7639 18 18 17.7301 18 17.3972V5.34024C18 4.91943 17.6314 4.62773 17.2868 4.77607ZM4.7578 13.3782C4.7578 13.7111 4.52169 13.981 4.23046 13.981H2.47264C2.18141 13.981 1.9453 13.7111 1.9453 13.3782V11.3687C1.9453 11.0358 2.18141 10.7659 2.47264 10.7659H4.23046C4.52169 10.7659 4.7578 11.0358 4.7578 11.3687V13.3782ZM10.4062 13.3782C10.4062 13.7111 10.1701 13.981 9.87891 13.981H8.12109C7.82986 13.981 7.59375 13.7111 7.59375 13.3782V11.3687C7.59375 11.0358 7.82986 10.7659 8.12109 10.7659H9.87891C10.1701 10.7659 10.4062 11.0358 10.4062 11.3687V13.3782ZM16.0547 13.3782C16.0547 13.7111 15.8186 13.981 15.5274 13.981H13.7695C13.4783 13.981 13.2422 13.7111 13.2422 13.3782V11.3687C13.2422 11.0358 13.4783 10.7659 13.7695 10.7659H15.5274C15.8186 10.7659 16.0547 11.0358 16.0547 11.3687V13.3782Z"
    fill="#404040"
    />
    <path
    d="M14.5 0C13.9477 0 13.5 0.424151 13.5 0.947368V5.3682L16.5 4.07717V0.947368C16.5 0.424151 16.0523 0 15.5 0H14.5Z"
    fill="#404040"
    />
    <path d="M16.5 5.1177L13.5 6.40873V8.52632H16.5V5.1177Z" fill="#404040" />
</svg>