<svg
    width="20"
    height="20"
    viewBox="0 0 20 20"
    fill="none"
    xmlns="http://www.w3.org/2000/svg"
>
    <path
    d="M10.4762 2.85714C10.4762 1.27919 11.7554 0 13.3333 0H17.1429C18.7208 0 20 1.27919 20 2.85714V6.66667C20 8.24462 18.7208 9.52381 17.1429 9.52381H13.3333C11.7554 9.52381 10.4762 8.24462 10.4762 6.66667V2.85714Z"
    fill=""
    />
    <path
    d="M0 2.85714C0 1.27919 1.27919 0 2.85714 0H6.66667C8.24462 0 9.52381 1.27919 9.52381 2.85714V6.66667C9.52381 8.24462 8.24462 9.52381 6.66667 9.52381H2.85714C1.27919 9.52381 0 8.24462 0 6.66667V2.85714Z"
    fill=""
    />
    <path
    d="M10.4762 13.3333C10.4762 11.7554 11.7554 10.4762 13.3333 10.4762H17.1429C18.7208 10.4762 20 11.7554 20 13.3333V17.1429C20 18.7208 18.7208 20 17.1429 20H13.3333C11.7554 20 10.4762 18.7208 10.4762 17.1429V13.3333Z"
    fill=""
    />
    <path
    d="M0 13.3333C0 11.7554 1.27919 10.4762 2.85714 10.4762H6.66667C8.24462 10.4762 9.52381 11.7554 9.52381 13.3333V17.1429C9.52381 18.7208 8.24462 20 6.66667 20H2.85714C1.27919 20 0 18.7208 0 17.1429V13.3333Z"
    fill=""
    />
</svg>