<svg width="38" height="30" viewBox="0 0 38 30" fill="none" xmlns="http://www.w3.org/2000/svg">
<path d="M35.2304 3.95028H25.1717L23.1405 0.538022C23.0429 0.374034 22.9043 0.238227 22.7384 0.14391C22.5725 0.0495934 22.3849 3.49865e-06 22.1941 1.14012e-09H15.8058C15.615 -8.68159e-06 15.4274 0.0495762 15.2615 0.143894C15.0955 0.238212 14.957 0.374026 14.8594 0.538022L12.8282 3.95028H9.52748V3.19821C9.52748 2.9061 9.41144 2.62596 9.20489 2.41941C8.99834 2.21285 8.7182 2.09682 8.42609 2.09682H4.3508C4.05869 2.09682 3.77854 2.21285 3.57199 2.41941C3.36544 2.62596 3.2494 2.9061 3.2494 3.19821V3.95028H2.76962C1.23989 3.95028 0 5.19029 0 6.71977V26.7724C0 28.302 1.23989 29.542 2.7695 29.542H35.2304C36.76 29.542 38 28.302 38 26.7724V6.71977C38.0001 5.19029 36.76 3.95028 35.2304 3.95028ZM18.9999 24.6294C14.6461 24.6294 11.1166 21.1 11.1166 16.746C11.1166 12.3922 14.6461 8.86259 18.9999 8.86259C23.3538 8.86259 26.8833 12.3922 26.8833 16.746C26.8833 21.1 23.3538 24.6294 18.9999 24.6294ZM33.5024 9.66016H30.0512C29.9066 9.66016 29.7633 9.63167 29.6297 9.57631C29.4961 9.52096 29.3746 9.43982 29.2724 9.33753C29.1701 9.23524 29.089 9.11381 29.0336 8.98017C28.9783 8.84653 28.9498 8.70329 28.9498 8.55865C28.9498 8.414 28.9783 8.27077 29.0336 8.13712C29.089 8.00348 29.1701 7.88205 29.2724 7.77976C29.3746 7.67748 29.4961 7.59634 29.6297 7.54098C29.7633 7.48562 29.9066 7.45713 30.0512 7.45713H33.5024C33.6471 7.45711 33.7903 7.48559 33.924 7.54094C34.0576 7.59629 34.1791 7.67743 34.2814 7.77972C34.3836 7.88201 34.4648 8.00345 34.5201 8.13709C34.5755 8.27074 34.604 8.41399 34.6039 8.55865C34.6039 8.85079 34.4879 9.13096 34.2813 9.33754C34.0747 9.54411 33.7946 9.66016 33.5024 9.66016Z" fill="#999999"/>
<path d="M18.9999 22.2533C22.0416 22.2533 24.5073 19.7875 24.5073 16.7459C24.5073 13.7043 22.0416 11.2386 18.9999 11.2386C15.9583 11.2386 13.4926 13.7043 13.4926 16.7459C13.4926 19.7875 15.9583 22.2533 18.9999 22.2533Z" fill="#999999"/>
</svg>
