<svg width="24" height="24" viewBox="0 0 24 24" fill="none" xmlns="http://www.w3.org/2000/svg">
<path d="M24 12C24 18.6274 18.6274 24 12 24C5.37258 24 0 18.6274 0 12C0 5.37258 5.37258 0 12 0C18.6274 0 24 5.37258 24 12Z" fill="#666666"/>
<path d="M16.9978 15.492C17.4184 15.9134 17.4184 16.5958 16.9978 17.0172C16.5771 17.4387 15.8961 17.4387 15.4754 17.0172L11.99 13.5252L8.50451 17.0172C8.08385 17.4387 7.40279 17.4387 6.98213 17.0172C6.56147 16.5958 6.56147 15.9134 6.98213 15.492L10.4676 12L7.00216 8.4879C6.5815 8.06645 6.5815 7.3841 7.00216 6.98272C7.42282 6.56128 8.08385 6.56128 8.50451 6.98272L11.99 10.4747L15.4954 6.98272C15.9161 6.56128 16.5972 6.56128 17.0178 6.98272C17.4385 7.40417 17.4385 8.08652 17.0178 8.50797L13.5324 12L17.0178 15.492H16.9978Z" fill="#F7F5F5"/>
</svg>
