<svg width="11" height="11" viewBox="0 0 11 11" fill="none" xmlns="http://www.w3.org/2000/svg">
<path d="M10.654 9.10113C11.0878 9.53575 11.0878 10.2394 10.654 10.674C10.2202 11.1087 9.51784 11.1087 9.08404 10.674L5.48967 7.07291L1.8953 10.674C1.4615 11.1087 0.759155 11.1087 0.325352 10.674C-0.108451 10.2394 -0.108451 9.53575 0.325352 9.10113L3.91972 5.5L0.346009 1.87818C-0.0877938 1.44356 -0.0877938 0.739887 0.346009 0.325964C0.779812 -0.108655 1.4615 -0.108655 1.8953 0.325964L5.48967 3.92709L9.10469 0.325964C9.5385 -0.108655 10.2408 -0.108655 10.6746 0.325964C11.1084 0.760583 11.1084 1.46425 10.6746 1.89887L7.08028 5.5L10.6746 9.10113H10.654Z" fill="white"/>
</svg>
