<svg width="20" height="24" viewBox="0 0 20 24" fill="none" xmlns="http://www.w3.org/2000/svg">
<path d="M17.3182 0H7.13768C5.65889 0 4.45575 1.1792 4.45575 2.62856V2.95117H2.68194C1.20315 2.95117 0 4.13038 0 5.57974V21.1214C0 22.5708 1.20315 23.75 2.68194 23.75H12.8624C14.3412 23.75 15.5443 22.5708 15.5443 21.1214V20.7988H17.3181C18.7969 20.7988 20 19.6196 20 18.1703V2.62856C20.0001 1.1792 18.797 0 17.3182 0ZM13.8144 21.1214C13.8144 21.6359 13.3873 22.0544 12.8625 22.0544H2.68194C2.15706 22.0544 1.72998 21.6359 1.72998 21.1214V5.57962C1.72998 5.06519 2.15706 4.64662 2.68194 4.64662H12.8624C13.3873 4.64662 13.8143 5.06519 13.8143 5.57962V21.1214H13.8144ZM18.2701 18.1703C18.2701 18.6847 17.8431 19.1033 17.3182 19.1033H15.5444V5.57962C15.5444 4.13026 14.3412 2.95106 12.8625 2.95106H6.18573V2.62845C6.18573 2.11402 6.61281 1.69544 7.13768 1.69544H17.3182C17.8431 1.69544 18.2701 2.11402 18.2701 2.62845V18.1703Z" fill="#404040"/>
</svg>
