<svg width="12" height="12" viewBox="0 0 12 12" fill="none" xmlns="http://www.w3.org/2000/svg">
<path d="M11.1261 0.871972C10.5667 0.313598 9.80864 0 9.01832 0C8.22799 0 7.46994 0.313598 6.91054 0.871972L5.78806 1.99462L0.737106 7.04658C0.645288 7.13828 0.585761 7.25736 0.567496 7.38585L0.00604534 11.315C-0.00612825 11.4001 0.000130574 11.4868 0.0243978 11.5693C0.0486651 11.6518 0.090374 11.7281 0.146699 11.7931C0.203025 11.858 0.272651 11.9101 0.350862 11.9458C0.429073 11.9815 0.514042 12 0.600014 12C0.62844 12.0001 0.656833 11.998 0.684969 11.994L4.6138 11.4328C4.74224 11.4142 4.86123 11.3546 4.95302 11.2628L11.1267 5.08876C11.4036 4.8119 11.6232 4.48321 11.773 4.12145C11.9229 3.75968 12 3.37194 12 2.98037C12 2.58879 11.9229 2.20105 11.773 1.83929C11.6232 1.47753 11.4036 1.14883 11.1267 0.871972H11.1261ZM4.24584 10.2731L1.3072 10.6927L1.72717 7.75386L6.21242 3.26759L8.7315 5.78687L4.24584 10.2731ZM10.2775 4.24028L9.57974 4.93839L7.06053 2.41898L7.75889 1.72046C8.09824 1.3966 8.54927 1.21591 9.01832 1.21591C9.48737 1.21591 9.93839 1.3966 10.2777 1.72046C10.6117 2.05466 10.7994 2.50784 10.7994 2.98037C10.7994 3.4529 10.6117 3.90608 10.2777 4.24028H10.2775Z" fill="#808080"/>
</svg>
