<svg width="22" height="24" viewBox="0 0 22 24" fill="none" xmlns="http://www.w3.org/2000/svg">
<path d="M17.6056 15.2729C16.9144 15.2745 16.2334 15.4384 15.6182 15.7513C15.003 16.0641 14.4711 16.5169 14.0658 17.0729L8.55629 13.4261C8.90349 12.5068 8.90349 11.4938 8.55629 10.5745L14.0658 6.92766C14.6842 7.76015 15.5813 8.34639 16.596 8.58104C17.6106 8.81569 18.6762 8.68338 19.6014 8.20788C20.5266 7.73238 21.2507 6.94485 21.6437 5.9868C22.0366 5.02874 22.0726 3.96295 21.7452 2.98092C21.4177 1.99888 20.7484 1.16497 19.8573 0.628999C18.9663 0.0930318 17.912 -0.109856 16.8838 0.0567868C15.8556 0.22343 14.921 0.748681 14.2478 1.53817C13.5746 2.32766 13.2071 3.32964 13.2111 4.36409C13.2182 4.52304 13.2344 4.68147 13.2594 4.83862L7.33683 8.75926C6.70566 8.19428 5.92306 7.82313 5.08381 7.69076C4.24456 7.5584 3.38466 7.67049 2.60825 8.01346C1.83184 8.35644 1.17223 8.91558 0.709306 9.62318C0.246382 10.3308 0 11.1565 0 12.0003C0 12.8441 0.246382 13.6698 0.709306 14.3774C1.17223 15.085 1.83184 15.6441 2.60825 15.9871C3.38466 16.3301 4.24456 16.4422 5.08381 16.3098C5.92306 16.1774 6.70566 15.8063 7.33683 15.2413L13.2594 19.1619C13.2344 19.3191 13.2182 19.4775 13.2111 19.6365C13.2111 20.4995 13.4688 21.3431 13.9517 22.0607C14.4346 22.7783 15.1209 23.3376 15.9239 23.6678C16.7269 23.9981 17.6104 24.0845 18.4629 23.9162C19.3153 23.7478 20.0983 23.3322 20.7129 22.7219C21.3275 22.1117 21.746 21.3342 21.9156 20.4877C22.0851 19.6413 21.9981 18.7639 21.6655 17.9666C21.3329 17.1693 20.7696 16.4878 20.047 16.0083C19.3243 15.5288 18.4747 15.2729 17.6056 15.2729ZM17.6056 2.18232C18.0401 2.18232 18.4649 2.31028 18.8263 2.55001C19.1876 2.78975 19.4692 3.13049 19.6355 3.52916C19.8018 3.92783 19.8453 4.36651 19.7606 4.78973C19.6758 5.21295 19.4665 5.6017 19.1592 5.90683C18.8519 6.21196 18.4604 6.41975 18.0342 6.50393C17.608 6.58812 17.1662 6.54491 16.7647 6.37978C16.3632 6.21464 16.0201 5.935 15.7786 5.57621C15.5372 5.21742 15.4083 4.7956 15.4083 4.36409C15.4083 3.78545 15.6398 3.2305 16.0519 2.82134C16.4639 2.41218 17.0228 2.18232 17.6056 2.18232ZM4.42221 14.182C3.98764 14.182 3.56283 14.0541 3.2015 13.8143C2.84017 13.5746 2.55855 13.2339 2.39224 12.8352C2.22594 12.4365 2.18243 11.9979 2.26721 11.5746C2.35199 11.1514 2.56125 10.7627 2.86854 10.4575C3.17583 10.1524 3.56734 9.94461 3.99356 9.86043C4.41978 9.77624 4.86156 9.81945 5.26305 9.98458C5.66454 10.1497 6.0077 10.4294 6.24914 10.7881C6.49057 11.1469 6.61944 11.5688 6.61944 12.0003C6.61944 12.5789 6.38794 13.1339 5.97588 13.543C5.56383 13.9522 5.00495 14.182 4.42221 14.182ZM17.6056 21.8182C17.171 21.8182 16.7462 21.6903 16.3848 21.4505C16.0235 21.2108 15.7419 20.8701 15.5756 20.4714C15.4093 20.0727 15.3658 19.634 15.4505 19.2108C15.5353 18.7876 15.7446 18.3988 16.0519 18.0937C16.3592 17.7886 16.7507 17.5808 17.1769 17.4966C17.6031 17.4124 18.0449 17.4556 18.4464 17.6208C18.8479 17.7859 19.191 18.0655 19.4325 18.4243C19.6739 18.7831 19.8028 19.2049 19.8028 19.6365C19.8028 20.2151 19.5713 20.77 19.1592 21.1792C18.7472 21.5884 18.1883 21.8182 17.6056 21.8182Z" fill="#666666"/>
</svg>
