<svg width="18" height="3" viewBox="0 0 18 3" fill="none" xmlns="http://www.w3.org/2000/svg">
<path d="M1.97894 2.09446C1.70716 2.09446 1.47349 1.99834 1.27794 1.80611C1.08239 1.61056 0.984619 1.37524 0.984619 1.10014C0.984619 0.828362 1.08239 0.596354 1.27794 0.404119C1.47349 0.20857 1.70716 0.110795 1.97894 0.110795C2.25072 0.110795 2.48438 0.20857 2.67993 0.404119C2.87548 0.596354 2.97326 0.828362 2.97326 1.10014C2.97326 1.28243 2.92685 1.44981 2.83405 1.60227C2.74456 1.75142 2.62524 1.87074 2.4761 1.96023C2.32695 2.04972 2.16123 2.09446 1.97894 2.09446ZM9.4848 2.09446C9.21302 2.09446 8.97935 1.99834 8.7838 1.80611C8.58825 1.61056 8.49048 1.37524 8.49048 1.10014C8.49048 0.828362 8.58825 0.596354 8.7838 0.404119C8.97935 0.20857 9.21302 0.110795 9.4848 0.110795C9.75658 0.110795 9.99024 0.20857 10.1858 0.404119C10.3813 0.596354 10.4791 0.828362 10.4791 1.10014C10.4791 1.28243 10.4327 1.44981 10.3399 1.60227C10.2504 1.75142 10.1311 1.87074 9.98196 1.96023C9.83281 2.04972 9.66709 2.09446 9.4848 2.09446ZM16.9907 2.09446C16.7189 2.09446 16.4852 1.99834 16.2897 1.80611C16.0941 1.61056 15.9963 1.37524 15.9963 1.10014C15.9963 0.828362 16.0941 0.596354 16.2897 0.404119C16.4852 0.20857 16.7189 0.110795 16.9907 0.110795C17.2624 0.110795 17.4961 0.20857 17.6917 0.404119C17.8872 0.596354 17.985 0.828362 17.985 1.10014C17.985 1.28243 17.9386 1.44981 17.8458 1.60227C17.7563 1.75142 17.637 1.87074 17.4878 1.96023C17.3387 2.04972 17.1729 2.09446 16.9907 2.09446Z" fill="#4D4D4D"/>
</svg>

