<svg width="17" height="18" viewBox="0 0 17 18" fill="none" xmlns="http://www.w3.org/2000/svg">
<path d="M13.6043 11.4547C13.0702 11.4559 12.544 11.5788 12.0686 11.8134C11.5933 12.0481 11.1822 12.3877 10.869 12.8047L6.61168 10.0695C6.87997 9.3801 6.87997 8.62031 6.61168 7.93087L10.869 5.19575C11.3469 5.82011 12.0401 6.25979 12.8241 6.43578C13.6082 6.61177 14.4316 6.51253 15.1466 6.15591C15.8615 5.79928 16.421 5.20864 16.7247 4.4901C17.0283 3.77156 17.0561 2.97222 16.8031 2.23569C16.5501 1.49916 16.0328 0.873725 15.3443 0.471749C14.6558 0.0697738 13.8411 -0.0823922 13.0466 0.0425901C12.2521 0.167572 11.5298 0.56151 11.0097 1.15363C10.4895 1.74574 10.2055 2.49723 10.2086 3.27306C10.2141 3.39228 10.2266 3.5111 10.2459 3.62897L5.66937 6.56944C5.18165 6.14571 4.57691 5.86735 3.9284 5.76807C3.27988 5.6688 2.61542 5.75287 2.01546 6.0101C1.41551 6.26733 0.905815 6.68669 0.5481 7.21739C0.190386 7.74809 0 8.36736 0 9.00021C0 9.63305 0.190386 10.2523 0.5481 10.783C0.905815 11.3137 1.41551 11.7331 2.01546 11.9903C2.61542 12.2475 3.27988 12.3316 3.9284 12.2323C4.57691 12.1331 5.18165 11.8547 5.66937 11.431L10.2459 14.3714C10.2266 14.4893 10.2141 14.6081 10.2086 14.7273C10.2086 15.3746 10.4077 16.0073 10.7809 16.5455C11.154 17.0837 11.6843 17.5032 12.3048 17.7509C12.9253 17.9986 13.6081 18.0634 14.2668 17.9371C14.9255 17.8108 15.5305 17.4991 16.0054 17.0415C16.4803 16.5838 16.8037 16.0006 16.9348 15.3658C17.0658 14.731 16.9985 14.073 16.7415 13.475C16.4845 12.877 16.0493 12.3658 15.4908 12.0062C14.9324 11.6466 14.2759 11.4547 13.6043 11.4547ZM13.6043 1.63674C13.9401 1.63674 14.2684 1.73271 14.5476 1.91251C14.8268 2.09231 15.0444 2.34787 15.1729 2.64687C15.3014 2.94587 15.335 3.27488 15.2695 3.5923C15.204 3.90971 15.0423 4.20128 14.8049 4.43012C14.5674 4.65897 14.2649 4.81481 13.9355 4.87795C13.6062 4.94109 13.2648 4.90868 12.9545 4.78483C12.6443 4.66098 12.3791 4.45125 12.1926 4.18216C12.006 3.91307 11.9064 3.5967 11.9064 3.27306C11.9064 2.83908 12.0853 2.42288 12.4037 2.11601C12.7221 1.80914 13.154 1.63674 13.6043 1.63674ZM3.41716 10.6365C3.08136 10.6365 2.7531 10.5406 2.47389 10.3608C2.19468 10.181 1.97706 9.9254 1.84855 9.6264C1.72005 9.3274 1.68642 8.99839 1.75193 8.68097C1.81745 8.36356 1.97915 8.07199 2.2166 7.84315C2.45405 7.6143 2.75658 7.45846 3.08593 7.39532C3.41528 7.33218 3.75666 7.36459 4.06691 7.48844C4.37715 7.61229 4.64232 7.82202 4.82888 8.09111C5.01544 8.3602 5.11502 8.67657 5.11502 9.00021C5.11502 9.43419 4.93614 9.85039 4.61773 10.1573C4.29932 10.4641 3.86746 10.6365 3.41716 10.6365ZM13.6043 16.3637C13.2685 16.3637 12.9402 16.2677 12.661 16.0879C12.3818 15.9081 12.1642 15.6525 12.0357 15.3535C11.9072 15.0545 11.8735 14.7255 11.9391 14.4081C12.0046 14.0907 12.1663 13.7991 12.4037 13.5703C12.6412 13.3414 12.9437 13.1856 13.2731 13.1225C13.6024 13.0593 13.9438 13.0917 14.254 13.2156C14.5643 13.3394 14.8294 13.5492 15.016 13.8183C15.2026 14.0873 15.3021 14.4037 15.3021 14.7273C15.3021 15.1613 15.1233 15.5775 14.8049 15.8844C14.4864 16.1913 14.0546 16.3637 13.6043 16.3637Z" fill="white"/>
</svg>
