<svg width="40" height="40" viewBox="0 0 40 40" fill="none" xmlns="http://www.w3.org/2000/svg">
<circle cx="20" cy="20" r="20" fill="#2899C9"/>
<path d="M29.6437 10.0752L29.23 10.2252L6.78003 18.3138C6.62094 18.363 6.48267 18.4636 6.38689 18.5999C6.29111 18.7361 6.24323 18.9002 6.25077 19.0666C6.25831 19.2329 6.32083 19.3921 6.42854 19.5191C6.53625 19.6461 6.68305 19.7338 6.84594 19.7684L12.6573 21.3593L13.7414 24.5411L14.8255 27.7229C14.8878 27.8789 14.9872 28.0173 15.1151 28.1262C15.243 28.235 15.3955 28.311 15.5595 28.3475C15.7234 28.384 15.8938 28.3799 16.0558 28.3356C16.2178 28.2914 16.3665 28.2082 16.4891 28.0934L19.4914 25.257L25.3869 29.2548C26.1073 29.7457 27.1346 29.382 27.3187 28.5729L31.2232 11.3207C31.4141 10.4661 30.5141 9.76384 29.6437 10.0752ZM26.7778 13.9048L16.6346 22.1957L16.1573 22.5866C16.0525 22.6697 15.984 22.7903 15.9664 22.9229L15.8596 23.8048L15.5664 26.282C15.5688 26.3122 15.5591 26.342 15.5395 26.365C15.5199 26.3881 15.492 26.4023 15.4619 26.4048C15.4317 26.4072 15.4019 26.3975 15.3788 26.3779C15.3558 26.3583 15.3415 26.3303 15.3391 26.3002L14.5141 23.8252L13.6619 21.2911C13.6258 21.1772 13.6306 21.0543 13.6754 20.9435C13.7202 20.8328 13.8022 20.7411 13.9073 20.6843L24.4619 14.6343L26.4482 13.4979C26.7369 13.3298 27.0323 13.6957 26.7778 13.9048Z" fill="white"/>
</svg>
