<svg width="25" height="26" viewBox="0 0 25 26" fill="none" xmlns="http://www.w3.org/2000/svg">
<rect width="25" height="26" rx="6" fill="#2899C9"/>
<path d="M18.5273 7.047L18.2688 7.14075L4.23752 12.1962C4.13809 12.2269 4.05167 12.2898 3.9918 12.3749C3.93194 12.4601 3.90202 12.5626 3.90673 12.6666C3.91144 12.7706 3.95052 12.8701 4.01784 12.9494C4.08515 13.0288 4.17691 13.0836 4.27871 13.1052L7.91082 14.0996L8.58837 16.0882L9.26593 18.0768C9.30485 18.1743 9.36698 18.2608 9.44693 18.3289C9.52687 18.3969 9.62221 18.4444 9.72467 18.4672C9.82713 18.49 9.93361 18.4875 10.0349 18.4598C10.1361 18.4321 10.2291 18.3801 10.3057 18.3084L12.1821 16.5356L15.8668 19.0342C16.3171 19.341 16.9591 19.1138 17.0742 18.6081L19.5145 7.82541C19.6338 7.29132 19.0713 6.8524 18.5273 7.047ZM16.7361 9.44047L10.3966 14.6223L10.0983 14.8666C10.0328 14.9186 9.99001 14.9939 9.979 15.0768L9.91224 15.628L9.729 17.1763C9.7305 17.1951 9.72447 17.2138 9.71221 17.2282C9.69996 17.2425 9.68249 17.2515 9.66366 17.253C9.64482 17.2545 9.62616 17.2484 9.61177 17.2362C9.59739 17.2239 9.58846 17.2065 9.58695 17.1876L9.07133 15.6408L8.53866 14.0569C8.51613 13.9858 8.51912 13.9089 8.54712 13.8397C8.57512 13.7705 8.62638 13.7132 8.69207 13.6777L15.2887 9.89644L16.5301 9.18621C16.7105 9.08109 16.8952 9.30979 16.7361 9.44047Z" fill="white"/>
</svg>
