<svg width="25" height="26" viewBox="0 0 25 26" fill="none" xmlns="http://www.w3.org/2000/svg">
<rect width="25" height="26" rx="6" fill="#2BAA41"/>
<path d="M18.1972 6.98513C16.8966 5.67163 15.1695 4.86611 13.3274 4.71385C11.4853 4.5616 9.64938 5.07264 8.15086 6.15479C6.65234 7.23694 5.58985 8.81897 5.15503 10.6155C4.72022 12.4121 4.9417 14.3048 5.77954 15.9525L4.9571 19.9454C4.94856 19.9851 4.94832 20.0262 4.95639 20.066C4.96445 20.1058 4.98065 20.1436 5.00397 20.1769C5.03814 20.2274 5.0869 20.2663 5.14375 20.2884C5.20061 20.3105 5.26285 20.3147 5.32216 20.3005L9.23551 19.3729C10.8785 20.1895 12.7579 20.3968 14.5394 19.9578C16.3208 19.5188 17.8887 18.462 18.9641 16.9754C20.0395 15.4889 20.5527 13.669 20.4122 11.8397C20.2718 10.0103 19.4869 8.29009 18.1972 6.98513ZM16.977 16.7238C16.0772 17.6211 14.9184 18.2134 13.6641 18.4172C12.4098 18.6211 11.1232 18.4263 9.98551 17.8601L9.44005 17.5902L7.0409 18.1584L7.04801 18.1286L7.54517 15.7138L7.27812 15.1868C6.69681 14.0452 6.49175 12.7488 6.69231 11.4835C6.89286 10.2181 7.48875 9.04874 8.3946 8.1428C9.53282 7.00493 11.0764 6.36572 12.6858 6.36572C14.2952 6.36572 15.8388 7.00493 16.977 8.1428C16.9867 8.15391 16.9971 8.16436 17.0082 8.17405C18.1323 9.31485 18.7599 10.8538 18.754 12.4553C18.7482 14.0569 18.1094 15.5912 16.977 16.7238Z" fill="white"/>
<path d="M16.764 14.9524C16.4699 15.4155 16.0054 15.9822 15.4216 16.1228C14.3989 16.37 12.8293 16.1314 10.8762 14.3103L10.852 14.289C9.1347 12.6967 8.68868 11.3714 8.79663 10.3203C8.85629 9.7237 9.35345 9.18393 9.77249 8.83165C9.83873 8.77511 9.91729 8.73486 10.0019 8.7141C10.0865 8.69335 10.1747 8.69268 10.2596 8.71215C10.3445 8.73161 10.4237 8.77067 10.4908 8.8262C10.5579 8.88172 10.6111 8.95218 10.6461 9.03194L11.2782 10.4524C11.3192 10.5445 11.3345 10.646 11.3222 10.7461C11.3099 10.8462 11.2707 10.9411 11.2086 11.0206L10.889 11.4353C10.8204 11.521 10.779 11.6252 10.7701 11.7346C10.7613 11.8439 10.7854 11.9534 10.8392 12.049C11.0182 12.3629 11.4472 12.8246 11.9231 13.2521C12.4571 13.7351 13.0495 14.1768 13.4245 14.3274C13.5248 14.3684 13.6351 14.3784 13.7412 14.3561C13.8473 14.3338 13.9443 14.2803 14.0196 14.2024L14.3904 13.8288C14.4619 13.7583 14.5509 13.708 14.6482 13.683C14.7455 13.6581 14.8477 13.6594 14.9444 13.6868L16.4458 14.1129C16.5286 14.1383 16.6045 14.1823 16.6677 14.2416C16.7309 14.3008 16.7797 14.3737 16.8105 14.4547C16.8412 14.5357 16.8529 14.6227 16.8449 14.7089C16.8368 14.7952 16.8091 14.8785 16.764 14.9524Z" fill="white"/>
</svg>
