<svg width="40" height="40" viewBox="0 0 40 40" fill="none" xmlns="http://www.w3.org/2000/svg">
<circle cx="20" cy="20" r="20" fill="#2BAA41"/>
<path d="M28.7154 11.1762C26.6346 9.07461 23.8713 7.78577 20.9239 7.54216C17.9765 7.29856 15.039 8.11622 12.6414 9.84766C10.2437 11.5791 8.54375 14.1103 7.84805 16.9848C7.15234 19.8593 7.50672 22.8877 8.84727 25.5239L7.53136 31.9126C7.5177 31.9762 7.51732 32.0419 7.53022 32.1056C7.54313 32.1694 7.56905 32.2298 7.60636 32.283C7.66102 32.3639 7.73904 32.4261 7.83 32.4614C7.92097 32.4968 8.02055 32.5035 8.11545 32.4807L14.3768 30.9967C17.0056 32.3033 20.0127 32.6349 22.863 31.9324C25.7133 31.23 28.222 29.5391 29.9426 27.1607C31.6633 24.7822 32.4843 21.8704 32.2596 18.9435C32.0348 16.0165 30.779 13.2641 28.7154 11.1762ZM26.7632 26.758C25.3235 28.1937 23.4695 29.1414 21.4626 29.4676C19.4558 29.7938 17.3971 29.482 15.5768 28.5762L14.7041 28.1444L10.8654 29.0535L10.8768 29.0057L11.6723 25.1421L11.245 24.2989C10.3149 22.4723 9.9868 20.3981 10.3077 18.3736C10.6286 16.349 11.582 14.478 13.0314 13.0285C14.8525 11.2079 17.3222 10.1851 19.8973 10.1851C22.4724 10.1851 24.942 11.2079 26.7632 13.0285C26.7787 13.0463 26.7954 13.063 26.8132 13.0785C28.6117 14.9038 29.6158 17.3661 29.6064 19.9286C29.5971 22.4911 28.575 24.9459 26.7632 26.758Z" fill="white"/>
<path d="M26.4223 23.9239C25.9519 24.6648 25.2087 25.5716 24.2746 25.7966C22.6382 26.192 20.1269 25.8102 17.0019 22.8966L16.9632 22.8625C14.2155 20.3148 13.5019 18.1943 13.6746 16.5125C13.7701 15.5579 14.5655 14.6943 15.236 14.1307C15.342 14.0402 15.4677 13.9758 15.603 13.9426C15.7383 13.9094 15.8796 13.9083 16.0154 13.9395C16.1512 13.9706 16.2779 14.0331 16.3853 14.1219C16.4926 14.2108 16.5777 14.3235 16.6337 14.4511L17.6451 16.7239C17.7108 16.8712 17.7351 17.0337 17.7155 17.1938C17.6959 17.354 17.633 17.5058 17.5337 17.6329L17.0223 18.2966C16.9126 18.4336 16.8464 18.6003 16.8322 18.7753C16.818 18.9503 16.8565 19.1255 16.9428 19.2784C17.2291 19.7807 17.9155 20.5193 18.6769 21.2034C19.5314 21.9761 20.4791 22.6829 21.0791 22.9239C21.2397 22.9894 21.4162 23.0054 21.5859 22.9698C21.7557 22.9342 21.9108 22.8485 22.0314 22.7239L22.6246 22.1261C22.7391 22.0133 22.8814 21.9328 23.0371 21.8928C23.1928 21.8529 23.3563 21.855 23.511 21.8989L25.9132 22.5807C26.0458 22.6213 26.1672 22.6917 26.2683 22.7865C26.3695 22.8813 26.4476 22.998 26.4967 23.1276C26.5458 23.2572 26.5647 23.3963 26.5518 23.5343C26.5389 23.6723 26.4946 23.8056 26.4223 23.9239Z" fill="white"/>
</svg>
