        <svg width="350" height="150" viewBox="0 0 350 150" fill="none" xmlns="http://www.w3.org/2000/svg">
          <mask
            id="mask0_2569_36"
            style="mask-type: alpha"
            maskUnits="userSpaceOnUse"
            x="0"
            y="0"
            width="350"
            height="150"
          >
            <path d="M0 10C0 4.47715 4.47715 0 10 0H340C345.523 0 350 4.47715 350 10V150H0V10Z" fill="#D9D9D9" />
          </mask>
          <g mask="url(#mask0_2569_36)">
            <path d="M-3.05176e-05 152.357L349.997 152.357V-72L-3.05176e-05 -72V152.357Z" fill="#384450" />
            <path
              d="M231.116 27.0696C205.006 31.2074 177.856 31.5086 156.146 14.4351C134.806 -2.34681 121 -26.9139 101.178 -45.3945C92.2655 -53.7053 81.2088 -63.2917 69.0067 -72H195.728C199.708 -66.4359 203.663 -60.9168 207.895 -55.8559C225.137 -35.2279 249.185 -30.3754 274.862 -29.0934C300.657 -27.8049 327.441 -26.0677 350 -12.9877V20.5793C310.317 14.6018 271.337 20.6978 231.119 27.0728L231.116 27.0696Z"
              fill="#FF411E"
            />
            <path
              d="M101.178 -45.3945C120.997 -26.9107 134.806 -2.34679 156.146 14.4351C177.856 31.5087 205.006 31.2074 231.116 27.0696C271.333 20.6947 310.314 14.5986 349.997 20.5761V152.354H0V-72H69.0066C81.2088 -63.2917 92.2655 -53.7053 101.178 -45.3945Z"
              fill="#FF5833"
            />
            <path
              d="M129.416 -39.5323C155.526 -43.6701 182.676 -43.9714 204.385 -26.8978C225.726 -10.1159 239.531 14.4511 259.354 32.9317C281.452 53.5373 316.709 81.9697 349.997 85.4569V152.357H0V-34.917C43.3391 -25.9876 85.6442 -32.5965 129.416 -39.5323Z"
              fill="#F00B1D"
            />
            <path
              d="M146.41 43.3771C159.984 58.7872 171.428 76.2422 187.703 89.0402C209.413 106.114 236.563 105.812 262.673 101.675C292.193 96.9952 321.046 92.4664 349.997 92.7517V152.357H274.187C255.31 147.636 237.024 140.085 222.789 133.447C198.28 122.017 177.63 102.934 152.191 93.5914C126.314 84.0883 100.576 92.8029 77.0057 104.848C51.4304 117.915 26.3961 130.658 0 139.37V0.36789C48.1818 -30.135 113.074 5.53451 146.41 43.3803V43.3771Z"
              fill="#FF411E"
            />
            <path
              d="M152.191 93.5947C177.63 102.934 198.276 122.021 222.789 133.45C237.024 140.088 255.31 147.639 274.187 152.36H0V139.373C26.3961 130.662 51.4304 117.918 77.0025 104.851C100.576 92.8095 126.311 84.0948 152.188 93.5947H152.191Z"
              fill="#FF5833"
            />
            <path
              d="M73.0825 77.3063C83.4011 95.0914 91.2378 114.466 104.713 130.223C114.554 141.729 127.001 148.45 140.584 152.357H0V9.38708C30.7202 22.7363 57.689 50.7745 73.0825 77.3063Z"
              fill="#F00B1D"
            />
            <path
              d="M88.791 141.27C91.6514 144.77 94.3496 148.533 97.035 152.357H0V114.934C11.1903 117.255 22.8325 118.066 34.2424 118.761C55.239 120.046 74.8707 124.235 88.791 141.27Z"
              fill="#FF411E"
            />
            <path
              d="M250.604 24.0408C284.003 19.0376 316.753 15.5697 349.997 20.5793V85.4601C316.709 81.9729 281.451 53.5405 259.354 32.9349C256.312 30.0984 253.414 27.1177 250.604 24.044V24.0408Z"
              fill="#FF5833"
            />
            <path
              style="mix-blend-mode: overlay"
              d="M250.604 24.0408C284.003 19.0376 316.753 15.5697 349.997 20.5793V22.4318C322.019 23.5344 291.458 29.826 264.314 37.4829C262.596 35.9349 260.942 34.4125 259.354 32.9349C256.312 30.0984 253.414 27.1177 250.604 24.044V24.0408Z"
              fill="url(#paint0_linear_2569_36)"
            />
            <path
              style="mix-blend-mode: overlay"
              d="M286.116 98.0594C286.116 98.0594 286.116 98.0594 286.119 98.0594C280.672 97.4408 275.282 96.7101 269.997 95.8928C253.137 93.287 237.438 85.9762 223.839 75.7167C210.024 65.2937 200.074 51.6239 187.91 39.5535C162.593 14.4288 131.239 -5.40438 96.6532 -14.4139C84.6642 -17.5357 72.3762 -19.2408 60.0849 -19.4587C60.5558 -19.619 61.0267 -19.7825 61.5008 -19.9363C88.9469 -28.9907 118.452 -29.3753 146.343 -22.1094C180.929 -13.0998 212.283 6.73333 237.6 31.8549C249.764 43.9253 259.71 57.595 273.529 68.018C287.128 78.2775 302.827 85.5852 319.687 88.1941C329.525 89.7165 339.71 90.9441 349.997 91.6845V92.7518C328.749 92.5434 307.558 94.928 286.116 98.0594Z"
              fill="url(#paint1_linear_2569_36)"
            />
            <path
              style="mix-blend-mode: overlay"
              d="M8.18356 -10.9845C9.38628 -11.4204 10.5954 -11.8371 11.8108 -12.2409C39.2569 -21.2953 68.7616 -21.6799 96.6532 -14.414C131.239 -5.40445 162.593 14.4287 187.91 39.5535C200.074 51.6239 210.02 65.2936 223.839 75.7166C237.438 85.9761 253.137 93.2838 269.997 95.8927C275.282 96.71 280.672 97.4408 286.119 98.0594C278.34 99.1972 270.532 100.431 262.673 101.675C236.563 105.812 209.413 106.114 187.703 89.0402C171.428 76.2422 159.984 58.7873 146.41 43.3772C113.074 5.53456 48.1818 -30.135 0 0.367931V-7.71212C2.69179 -8.8916 5.41859 -9.98454 8.18356 -10.9845Z"
              fill="url(#paint2_linear_2569_36)"
            />
            <path
              style="mix-blend-mode: overlay"
              d="M179.275 107.316C181.661 108.486 184.066 109.646 186.504 110.777C202.317 118.117 218.939 123.671 235.952 127.383C264.779 133.674 314.743 131.947 349.997 126.534V152.354H274.187C255.31 147.633 237.024 140.081 222.789 133.444C207.481 126.306 193.679 116.181 179.275 107.309V107.316Z"
              fill="url(#paint3_linear_2569_36)"
            />
            <path
              style="mix-blend-mode: overlay"
              d="M142.97 101.014C129.314 94.1331 115.069 92.819 100.863 94.5882C117.5 89.0466 134.816 87.2132 152.191 93.5946C177.63 102.934 198.276 122.021 222.789 133.45C237.024 140.088 255.31 147.639 274.187 152.36H214.624C212.54 151.129 210.523 149.911 208.592 148.726C185.536 134.553 167.184 113.219 142.97 101.018V101.014Z"
              fill="url(#paint4_linear_2569_36)"
            />
            <path
              style="mix-blend-mode: overlay"
              d="M0 117.588V114.934C11.1903 117.255 22.8325 118.066 34.2424 118.761C55.239 120.046 74.8707 124.235 88.791 141.27C91.6514 144.77 94.3496 148.533 97.035 152.357H69.5348C70.2953 140.338 63.7312 134.873 48.5191 129.835"
              fill="url(#paint5_linear_2569_36)"
            />
          </g>
          <g filter="url(#filter0_d_2569_36)">
            <path
              d="M89.7012 105.5V105.969C89.7012 106.613 89.6172 107.191 89.4492 107.703C89.2812 108.215 89.041 108.65 88.7285 109.01C88.4199 109.369 88.0488 109.645 87.6152 109.836C87.1816 110.023 86.7012 110.117 86.1738 110.117C85.6504 110.117 85.1719 110.023 84.7383 109.836C84.3086 109.645 83.9355 109.369 83.6191 109.01C83.3027 108.65 83.0566 108.215 82.8809 107.703C82.709 107.191 82.623 106.613 82.623 105.969V105.5C82.623 104.855 82.709 104.279 82.8809 103.771C83.0527 103.26 83.2949 102.824 83.6074 102.465C83.9238 102.102 84.2969 101.826 84.7266 101.639C85.1602 101.447 85.6387 101.352 86.1621 101.352C86.6895 101.352 87.1699 101.447 87.6035 101.639C88.0371 101.826 88.4102 102.102 88.7227 102.465C89.0352 102.824 89.2754 103.26 89.4434 103.771C89.6152 104.279 89.7012 104.855 89.7012 105.5ZM88.2305 105.969V105.488C88.2305 105.012 88.1836 104.592 88.0898 104.229C88 103.861 87.8652 103.555 87.6855 103.309C87.5098 103.059 87.293 102.871 87.0352 102.746C86.7773 102.617 86.4863 102.553 86.1621 102.553C85.8379 102.553 85.5488 102.617 85.2949 102.746C85.041 102.871 84.8242 103.059 84.6445 103.309C84.4688 103.555 84.334 103.861 84.2402 104.229C84.1465 104.592 84.0996 105.012 84.0996 105.488V105.969C84.0996 106.445 84.1465 106.867 84.2402 107.234C84.334 107.602 84.4707 107.912 84.6504 108.166C84.834 108.416 85.0527 108.605 85.3066 108.734C85.5605 108.859 85.8496 108.922 86.1738 108.922C86.502 108.922 86.793 108.859 87.0469 108.734C87.3008 108.605 87.5156 108.416 87.6914 108.166C87.8672 107.912 88 107.602 88.0898 107.234C88.1836 106.867 88.2305 106.445 88.2305 105.969ZM93.6211 108.992C93.8516 108.992 94.0586 108.947 94.2422 108.857C94.4297 108.764 94.5801 108.635 94.6934 108.471C94.8105 108.307 94.875 108.117 94.8867 107.902H96.2168C96.209 108.312 96.0879 108.686 95.8535 109.021C95.6191 109.357 95.3086 109.625 94.9219 109.824C94.5352 110.02 94.1074 110.117 93.6387 110.117C93.1543 110.117 92.7324 110.035 92.373 109.871C92.0137 109.703 91.7148 109.473 91.4766 109.18C91.2383 108.887 91.0586 108.549 90.9375 108.166C90.8203 107.783 90.7617 107.373 90.7617 106.936V106.73C90.7617 106.293 90.8203 105.883 90.9375 105.5C91.0586 105.113 91.2383 104.773 91.4766 104.48C91.7148 104.188 92.0137 103.959 92.373 103.795C92.7324 103.627 93.1523 103.543 93.6328 103.543C94.1406 103.543 94.5859 103.645 94.9688 103.848C95.3516 104.047 95.6523 104.326 95.8711 104.686C96.0938 105.041 96.209 105.455 96.2168 105.928H94.8867C94.875 105.693 94.8164 105.482 94.7109 105.295C94.6094 105.104 94.4648 104.951 94.2773 104.838C94.0938 104.725 93.873 104.668 93.6152 104.668C93.3301 104.668 93.0938 104.727 92.9062 104.844C92.7188 104.957 92.5723 105.113 92.4668 105.312C92.3613 105.508 92.2852 105.729 92.2383 105.975C92.1953 106.217 92.1738 106.469 92.1738 106.73V106.936C92.1738 107.197 92.1953 107.451 92.2383 107.697C92.2812 107.943 92.3555 108.164 92.4609 108.359C92.5703 108.551 92.7188 108.705 92.9062 108.822C93.0938 108.936 93.332 108.992 93.6211 108.992ZM100.242 103.66V110H98.8242V103.66H100.242ZM102.322 103.66V104.773H96.7793V103.66H102.322ZM106.746 108.729V105.705C106.746 105.479 106.705 105.283 106.623 105.119C106.541 104.955 106.416 104.828 106.248 104.738C106.084 104.648 105.877 104.604 105.627 104.604C105.396 104.604 105.197 104.643 105.029 104.721C104.861 104.799 104.73 104.904 104.637 105.037C104.543 105.17 104.496 105.32 104.496 105.488H103.09C103.09 105.238 103.15 104.996 103.271 104.762C103.393 104.527 103.568 104.318 103.799 104.135C104.029 103.951 104.305 103.807 104.625 103.701C104.945 103.596 105.305 103.543 105.703 103.543C106.18 103.543 106.602 103.623 106.969 103.783C107.34 103.943 107.631 104.186 107.842 104.51C108.057 104.83 108.164 105.232 108.164 105.717V108.535C108.164 108.824 108.184 109.084 108.223 109.314C108.266 109.541 108.326 109.738 108.404 109.906V110H106.957C106.891 109.848 106.838 109.654 106.799 109.42C106.764 109.182 106.746 108.951 106.746 108.729ZM106.951 106.145L106.963 107.018H105.949C105.688 107.018 105.457 107.043 105.258 107.094C105.059 107.141 104.893 107.211 104.76 107.305C104.627 107.398 104.527 107.512 104.461 107.645C104.395 107.777 104.361 107.928 104.361 108.096C104.361 108.264 104.4 108.418 104.479 108.559C104.557 108.695 104.67 108.803 104.818 108.881C104.971 108.959 105.154 108.998 105.369 108.998C105.658 108.998 105.91 108.939 106.125 108.822C106.344 108.701 106.516 108.555 106.641 108.383C106.766 108.207 106.832 108.041 106.84 107.885L107.297 108.512C107.25 108.672 107.17 108.844 107.057 109.027C106.943 109.211 106.795 109.387 106.611 109.555C106.432 109.719 106.215 109.854 105.961 109.959C105.711 110.064 105.422 110.117 105.094 110.117C104.68 110.117 104.311 110.035 103.986 109.871C103.662 109.703 103.408 109.479 103.225 109.197C103.041 108.912 102.949 108.59 102.949 108.23C102.949 107.895 103.012 107.598 103.137 107.34C103.266 107.078 103.453 106.859 103.699 106.684C103.949 106.508 104.254 106.375 104.613 106.285C104.973 106.191 105.383 106.145 105.844 106.145H106.951ZM112.723 107.287H110.695L110.684 106.291H112.348C112.621 106.291 112.846 106.264 113.021 106.209C113.201 106.154 113.334 106.072 113.42 105.963C113.506 105.85 113.549 105.713 113.549 105.553C113.549 105.42 113.523 105.305 113.473 105.207C113.422 105.105 113.344 105.023 113.238 104.961C113.137 104.895 113.008 104.848 112.852 104.82C112.699 104.789 112.521 104.773 112.318 104.773H111.164V110H109.752V103.66H112.318C112.725 103.66 113.09 103.695 113.414 103.766C113.742 103.836 114.021 103.943 114.252 104.088C114.482 104.232 114.658 104.416 114.779 104.639C114.904 104.857 114.967 105.115 114.967 105.412C114.967 105.607 114.924 105.791 114.838 105.963C114.756 106.135 114.633 106.287 114.469 106.42C114.305 106.553 114.104 106.662 113.865 106.748C113.627 106.83 113.354 106.881 113.045 106.9L112.723 107.287ZM112.723 110H110.285L110.848 108.887H112.723C112.973 108.887 113.18 108.855 113.344 108.793C113.508 108.73 113.629 108.641 113.707 108.523C113.789 108.402 113.83 108.26 113.83 108.096C113.83 107.928 113.791 107.783 113.713 107.662C113.635 107.541 113.514 107.449 113.35 107.387C113.189 107.32 112.98 107.287 112.723 107.287H111.111L111.123 106.291H113.039L113.443 106.678C113.846 106.705 114.18 106.791 114.445 106.936C114.711 107.08 114.91 107.262 115.043 107.48C115.176 107.699 115.242 107.938 115.242 108.195C115.242 108.492 115.186 108.754 115.072 108.98C114.963 109.207 114.799 109.396 114.58 109.549C114.365 109.697 114.102 109.811 113.789 109.889C113.477 109.963 113.121 110 112.723 110ZM117.486 105.676H119.355C119.902 105.676 120.367 105.768 120.75 105.951C121.133 106.135 121.424 106.391 121.623 106.719C121.826 107.043 121.928 107.414 121.928 107.832C121.928 108.141 121.871 108.428 121.758 108.693C121.645 108.955 121.477 109.184 121.254 109.379C121.035 109.574 120.766 109.727 120.445 109.836C120.129 109.945 119.766 110 119.355 110H116.549V103.66H117.967V108.881H119.355C119.637 108.881 119.861 108.832 120.029 108.734C120.197 108.637 120.318 108.51 120.393 108.354C120.471 108.197 120.51 108.031 120.51 107.855C120.51 107.676 120.471 107.506 120.393 107.346C120.318 107.186 120.197 107.055 120.029 106.953C119.861 106.852 119.637 106.801 119.355 106.801H117.486V105.676ZM125.414 103.66V110H123.996V103.66H125.414ZM127.494 103.66V104.773H121.951V103.66H127.494ZM130.799 110.117C130.33 110.117 129.906 110.041 129.527 109.889C129.152 109.732 128.832 109.516 128.566 109.238C128.305 108.961 128.104 108.635 127.963 108.26C127.822 107.885 127.752 107.48 127.752 107.047V106.812C127.752 106.316 127.824 105.867 127.969 105.465C128.113 105.062 128.314 104.719 128.572 104.434C128.83 104.145 129.135 103.924 129.486 103.771C129.838 103.619 130.219 103.543 130.629 103.543C131.082 103.543 131.479 103.619 131.818 103.771C132.158 103.924 132.439 104.139 132.662 104.416C132.889 104.689 133.057 105.016 133.166 105.395C133.279 105.773 133.336 106.191 133.336 106.648V107.252H128.438V106.238H131.941V106.127C131.934 105.873 131.883 105.635 131.789 105.412C131.699 105.189 131.561 105.01 131.373 104.873C131.186 104.736 130.936 104.668 130.623 104.668C130.389 104.668 130.18 104.719 129.996 104.82C129.816 104.918 129.666 105.061 129.545 105.248C129.424 105.436 129.33 105.662 129.264 105.928C129.201 106.189 129.17 106.484 129.17 106.812V107.047C129.17 107.324 129.207 107.582 129.281 107.82C129.359 108.055 129.473 108.26 129.621 108.436C129.77 108.611 129.949 108.75 130.16 108.852C130.371 108.949 130.611 108.998 130.881 108.998C131.221 108.998 131.523 108.93 131.789 108.793C132.055 108.656 132.285 108.463 132.48 108.213L133.225 108.934C133.088 109.133 132.91 109.324 132.691 109.508C132.473 109.688 132.205 109.834 131.889 109.947C131.576 110.061 131.213 110.117 130.799 110.117ZM140.051 106.971H138.832V106.256H139.816C140.066 106.256 140.266 106.223 140.414 106.156C140.566 106.09 140.674 105.998 140.736 105.881C140.803 105.76 140.836 105.619 140.836 105.459C140.836 105.318 140.803 105.186 140.736 105.061C140.674 104.932 140.566 104.826 140.414 104.744C140.262 104.662 140.055 104.621 139.793 104.621C139.578 104.621 139.385 104.656 139.213 104.727C139.045 104.797 138.912 104.895 138.814 105.02C138.717 105.145 138.668 105.289 138.668 105.453H137.256C137.256 105.059 137.367 104.719 137.59 104.434C137.816 104.148 138.119 103.93 138.498 103.777C138.877 103.625 139.293 103.549 139.746 103.549C140.133 103.549 140.48 103.59 140.789 103.672C141.098 103.75 141.359 103.867 141.574 104.023C141.793 104.176 141.959 104.367 142.072 104.598C142.189 104.824 142.248 105.088 142.248 105.389C142.248 105.604 142.197 105.807 142.096 105.998C141.994 106.189 141.848 106.359 141.656 106.508C141.465 106.652 141.232 106.766 140.959 106.848C140.689 106.93 140.387 106.971 140.051 106.971ZM138.832 106.561H140.051C140.426 106.561 140.758 106.598 141.047 106.672C141.336 106.742 141.578 106.848 141.773 106.988C141.969 107.129 142.115 107.303 142.213 107.51C142.314 107.713 142.365 107.947 142.365 108.213C142.365 108.51 142.301 108.777 142.172 109.016C142.047 109.25 141.867 109.449 141.633 109.613C141.402 109.777 141.127 109.902 140.807 109.988C140.486 110.074 140.133 110.117 139.746 110.117C139.324 110.117 138.914 110.047 138.516 109.906C138.121 109.766 137.795 109.549 137.537 109.256C137.283 108.959 137.156 108.582 137.156 108.125H138.568C138.568 108.285 138.617 108.436 138.715 108.576C138.812 108.717 138.953 108.832 139.137 108.922C139.32 109.008 139.541 109.051 139.799 109.051C140.064 109.051 140.281 109.01 140.449 108.928C140.617 108.842 140.742 108.73 140.824 108.594C140.906 108.453 140.947 108.305 140.947 108.148C140.947 107.938 140.906 107.768 140.824 107.639C140.742 107.51 140.617 107.416 140.449 107.357C140.281 107.295 140.07 107.264 139.816 107.264H138.832V106.561ZM147.141 108.729V105.705C147.141 105.479 147.1 105.283 147.018 105.119C146.936 104.955 146.811 104.828 146.643 104.738C146.479 104.648 146.271 104.604 146.021 104.604C145.791 104.604 145.592 104.643 145.424 104.721C145.256 104.799 145.125 104.904 145.031 105.037C144.938 105.17 144.891 105.32 144.891 105.488H143.484C143.484 105.238 143.545 104.996 143.666 104.762C143.787 104.527 143.963 104.318 144.193 104.135C144.424 103.951 144.699 103.807 145.02 103.701C145.34 103.596 145.699 103.543 146.098 103.543C146.574 103.543 146.996 103.623 147.363 103.783C147.734 103.943 148.025 104.186 148.236 104.51C148.451 104.83 148.559 105.232 148.559 105.717V108.535C148.559 108.824 148.578 109.084 148.617 109.314C148.66 109.541 148.721 109.738 148.799 109.906V110H147.352C147.285 109.848 147.232 109.654 147.193 109.42C147.158 109.182 147.141 108.951 147.141 108.729ZM147.346 106.145L147.357 107.018H146.344C146.082 107.018 145.852 107.043 145.652 107.094C145.453 107.141 145.287 107.211 145.154 107.305C145.021 107.398 144.922 107.512 144.855 107.645C144.789 107.777 144.756 107.928 144.756 108.096C144.756 108.264 144.795 108.418 144.873 108.559C144.951 108.695 145.064 108.803 145.213 108.881C145.365 108.959 145.549 108.998 145.764 108.998C146.053 108.998 146.305 108.939 146.52 108.822C146.738 108.701 146.91 108.555 147.035 108.383C147.16 108.207 147.227 108.041 147.234 107.885L147.691 108.512C147.645 108.672 147.564 108.844 147.451 109.027C147.338 109.211 147.189 109.387 147.006 109.555C146.826 109.719 146.609 109.854 146.355 109.959C146.105 110.064 145.816 110.117 145.488 110.117C145.074 110.117 144.705 110.035 144.381 109.871C144.057 109.703 143.803 109.479 143.619 109.197C143.436 108.912 143.344 108.59 143.344 108.23C143.344 107.895 143.406 107.598 143.531 107.34C143.66 107.078 143.848 106.859 144.094 106.684C144.344 106.508 144.648 106.375 145.008 106.285C145.367 106.191 145.777 106.145 146.238 106.145H147.346ZM151.371 106.9H152.836L151.037 110H149.578L151.371 106.9ZM152.402 103.66H155.121V110H153.715V104.773H152.402C152.137 104.773 151.918 104.82 151.746 104.914C151.574 105.004 151.447 105.123 151.365 105.271C151.283 105.416 151.242 105.564 151.242 105.717C151.242 105.869 151.279 106.016 151.354 106.156C151.432 106.297 151.551 106.412 151.711 106.502C151.875 106.592 152.08 106.637 152.326 106.637H154.189V107.668H152.326C151.936 107.668 151.586 107.619 151.277 107.521C150.969 107.42 150.707 107.281 150.492 107.105C150.277 106.926 150.113 106.717 150 106.479C149.887 106.236 149.83 105.973 149.83 105.688C149.83 105.395 149.889 105.125 150.006 104.879C150.123 104.633 150.291 104.418 150.51 104.234C150.732 104.051 151.002 103.91 151.318 103.812C151.639 103.711 152 103.66 152.402 103.66ZM159.773 107.287H157.746L157.734 106.291H159.398C159.672 106.291 159.896 106.264 160.072 106.209C160.252 106.154 160.385 106.072 160.471 105.963C160.557 105.85 160.6 105.713 160.6 105.553C160.6 105.42 160.574 105.305 160.523 105.207C160.473 105.105 160.395 105.023 160.289 104.961C160.188 104.895 160.059 104.848 159.902 104.82C159.75 104.789 159.572 104.773 159.369 104.773H158.215V110H156.803V103.66H159.369C159.775 103.66 160.141 103.695 160.465 103.766C160.793 103.836 161.072 103.943 161.303 104.088C161.533 104.232 161.709 104.416 161.83 104.639C161.955 104.857 162.018 105.115 162.018 105.412C162.018 105.607 161.975 105.791 161.889 105.963C161.807 106.135 161.684 106.287 161.52 106.42C161.355 106.553 161.154 106.662 160.916 106.748C160.678 106.83 160.404 106.881 160.096 106.9L159.773 107.287ZM159.773 110H157.336L157.898 108.887H159.773C160.023 108.887 160.23 108.855 160.395 108.793C160.559 108.73 160.68 108.641 160.758 108.523C160.84 108.402 160.881 108.26 160.881 108.096C160.881 107.928 160.842 107.783 160.764 107.662C160.686 107.541 160.564 107.449 160.4 107.387C160.24 107.32 160.031 107.287 159.773 107.287H158.162L158.174 106.291H160.09L160.494 106.678C160.896 106.705 161.23 106.791 161.496 106.936C161.762 107.08 161.961 107.262 162.094 107.48C162.227 107.699 162.293 107.938 162.293 108.195C162.293 108.492 162.236 108.754 162.123 108.98C162.014 109.207 161.85 109.396 161.631 109.549C161.416 109.697 161.152 109.811 160.84 109.889C160.527 109.963 160.172 110 159.773 110ZM165.035 103.66V110H163.623V103.66H165.035ZM169.172 103.66L166.318 107.475H164.707L164.52 106.197H165.697L167.408 103.66H169.172ZM167.52 110L165.609 107.234L166.723 106.432L169.377 110H167.52ZM171.984 109.309L173.707 103.66H175.219L172.676 110.967C172.617 111.123 172.541 111.293 172.447 111.477C172.354 111.66 172.23 111.834 172.078 111.998C171.93 112.166 171.744 112.301 171.521 112.402C171.299 112.508 171.029 112.561 170.713 112.561C170.588 112.561 170.467 112.549 170.35 112.525C170.236 112.506 170.129 112.484 170.027 112.461L170.021 111.383C170.061 111.387 170.107 111.391 170.162 111.395C170.221 111.398 170.268 111.4 170.303 111.4C170.537 111.4 170.732 111.371 170.889 111.312C171.045 111.258 171.172 111.168 171.27 111.043C171.371 110.918 171.457 110.75 171.527 110.539L171.984 109.309ZM171.012 103.66L172.518 108.406L172.77 109.895L171.791 110.146L169.488 103.66H171.012ZM183.346 106.309V107.422H180.064V106.309H183.346ZM180.475 103.66V110H179.062V103.66H180.475ZM184.365 103.66V110H182.953V103.66H184.365ZM189.445 108.729V105.705C189.445 105.479 189.404 105.283 189.322 105.119C189.24 104.955 189.115 104.828 188.947 104.738C188.783 104.648 188.576 104.604 188.326 104.604C188.096 104.604 187.896 104.643 187.729 104.721C187.561 104.799 187.43 104.904 187.336 105.037C187.242 105.17 187.195 105.32 187.195 105.488H185.789C185.789 105.238 185.85 104.996 185.971 104.762C186.092 104.527 186.268 104.318 186.498 104.135C186.729 103.951 187.004 103.807 187.324 103.701C187.645 103.596 188.004 103.543 188.402 103.543C188.879 103.543 189.301 103.623 189.668 103.783C190.039 103.943 190.33 104.186 190.541 104.51C190.756 104.83 190.863 105.232 190.863 105.717V108.535C190.863 108.824 190.883 109.084 190.922 109.314C190.965 109.541 191.025 109.738 191.104 109.906V110H189.656C189.59 109.848 189.537 109.654 189.498 109.42C189.463 109.182 189.445 108.951 189.445 108.729ZM189.65 106.145L189.662 107.018H188.648C188.387 107.018 188.156 107.043 187.957 107.094C187.758 107.141 187.592 107.211 187.459 107.305C187.326 107.398 187.227 107.512 187.16 107.645C187.094 107.777 187.061 107.928 187.061 108.096C187.061 108.264 187.1 108.418 187.178 108.559C187.256 108.695 187.369 108.803 187.518 108.881C187.67 108.959 187.854 108.998 188.068 108.998C188.357 108.998 188.609 108.939 188.824 108.822C189.043 108.701 189.215 108.555 189.34 108.383C189.465 108.207 189.531 108.041 189.539 107.885L189.996 108.512C189.949 108.672 189.869 108.844 189.756 109.027C189.643 109.211 189.494 109.387 189.311 109.555C189.131 109.719 188.914 109.854 188.66 109.959C188.41 110.064 188.121 110.117 187.793 110.117C187.379 110.117 187.01 110.035 186.686 109.871C186.361 109.703 186.107 109.479 185.924 109.197C185.74 108.912 185.648 108.59 185.648 108.23C185.648 107.895 185.711 107.598 185.836 107.34C185.965 107.078 186.152 106.859 186.398 106.684C186.648 106.508 186.953 106.375 187.312 106.285C187.672 106.191 188.082 106.145 188.543 106.145H189.65ZM196.746 104.879V112.438H195.334V103.66H196.635L196.746 104.879ZM200.877 106.771V106.895C200.877 107.355 200.822 107.783 200.713 108.178C200.607 108.568 200.449 108.91 200.238 109.203C200.031 109.492 199.775 109.717 199.471 109.877C199.166 110.037 198.814 110.117 198.416 110.117C198.021 110.117 197.676 110.045 197.379 109.9C197.086 109.752 196.838 109.543 196.635 109.273C196.432 109.004 196.268 108.688 196.143 108.324C196.021 107.957 195.936 107.555 195.885 107.117V106.643C195.936 106.178 196.021 105.756 196.143 105.377C196.268 104.998 196.432 104.672 196.635 104.398C196.838 104.125 197.086 103.914 197.379 103.766C197.672 103.617 198.014 103.543 198.404 103.543C198.803 103.543 199.156 103.621 199.465 103.777C199.773 103.93 200.033 104.148 200.244 104.434C200.455 104.715 200.613 105.055 200.719 105.453C200.824 105.848 200.877 106.287 200.877 106.771ZM199.465 106.895V106.771C199.465 106.479 199.438 106.207 199.383 105.957C199.328 105.703 199.242 105.48 199.125 105.289C199.008 105.098 198.857 104.949 198.674 104.844C198.494 104.734 198.277 104.68 198.023 104.68C197.773 104.68 197.559 104.723 197.379 104.809C197.199 104.891 197.049 105.006 196.928 105.154C196.807 105.303 196.713 105.477 196.646 105.676C196.58 105.871 196.533 106.084 196.506 106.314V107.451C196.553 107.732 196.633 107.99 196.746 108.225C196.859 108.459 197.02 108.646 197.227 108.787C197.438 108.924 197.707 108.992 198.035 108.992C198.289 108.992 198.506 108.938 198.686 108.828C198.865 108.719 199.012 108.568 199.125 108.377C199.242 108.182 199.328 107.957 199.383 107.703C199.438 107.449 199.465 107.18 199.465 106.895ZM204.873 110.117C204.404 110.117 203.98 110.041 203.602 109.889C203.227 109.732 202.906 109.516 202.641 109.238C202.379 108.961 202.178 108.635 202.037 108.26C201.896 107.885 201.826 107.48 201.826 107.047V106.812C201.826 106.316 201.898 105.867 202.043 105.465C202.188 105.062 202.389 104.719 202.646 104.434C202.904 104.145 203.209 103.924 203.561 103.771C203.912 103.619 204.293 103.543 204.703 103.543C205.156 103.543 205.553 103.619 205.893 103.771C206.232 103.924 206.514 104.139 206.736 104.416C206.963 104.689 207.131 105.016 207.24 105.395C207.354 105.773 207.41 106.191 207.41 106.648V107.252H202.512V106.238H206.016V106.127C206.008 105.873 205.957 105.635 205.863 105.412C205.773 105.189 205.635 105.01 205.447 104.873C205.26 104.736 205.01 104.668 204.697 104.668C204.463 104.668 204.254 104.719 204.07 104.82C203.891 104.918 203.74 105.061 203.619 105.248C203.498 105.436 203.404 105.662 203.338 105.928C203.275 106.189 203.244 106.484 203.244 106.812V107.047C203.244 107.324 203.281 107.582 203.355 107.82C203.434 108.055 203.547 108.26 203.695 108.436C203.844 108.611 204.023 108.75 204.234 108.852C204.445 108.949 204.686 108.998 204.955 108.998C205.295 108.998 205.598 108.93 205.863 108.793C206.129 108.656 206.359 108.463 206.555 108.213L207.299 108.934C207.162 109.133 206.984 109.324 206.766 109.508C206.547 109.688 206.279 109.834 205.963 109.947C205.65 110.061 205.287 110.117 204.873 110.117ZM212.73 103.66V104.785H209.965V110H208.553V103.66H212.73ZM215.01 107.938L217.5 103.66H218.912V110H217.5V105.717L215.01 110H213.598V103.66H215.01V107.938ZM222.996 108.992C223.227 108.992 223.434 108.947 223.617 108.857C223.805 108.764 223.955 108.635 224.068 108.471C224.186 108.307 224.25 108.117 224.262 107.902H225.592C225.584 108.312 225.463 108.686 225.229 109.021C224.994 109.357 224.684 109.625 224.297 109.824C223.91 110.02 223.482 110.117 223.014 110.117C222.529 110.117 222.107 110.035 221.748 109.871C221.389 109.703 221.09 109.473 220.852 109.18C220.613 108.887 220.434 108.549 220.312 108.166C220.195 107.783 220.137 107.373 220.137 106.936V106.73C220.137 106.293 220.195 105.883 220.312 105.5C220.434 105.113 220.613 104.773 220.852 104.48C221.09 104.188 221.389 103.959 221.748 103.795C222.107 103.627 222.527 103.543 223.008 103.543C223.516 103.543 223.961 103.645 224.344 103.848C224.727 104.047 225.027 104.326 225.246 104.686C225.469 105.041 225.584 105.455 225.592 105.928H224.262C224.25 105.693 224.191 105.482 224.086 105.295C223.984 105.104 223.84 104.951 223.652 104.838C223.469 104.725 223.248 104.668 222.99 104.668C222.705 104.668 222.469 104.727 222.281 104.844C222.094 104.957 221.947 105.113 221.842 105.312C221.736 105.508 221.66 105.729 221.613 105.975C221.57 106.217 221.549 106.469 221.549 106.73V106.936C221.549 107.197 221.57 107.451 221.613 107.697C221.656 107.943 221.73 108.164 221.836 108.359C221.945 108.551 222.094 108.705 222.281 108.822C222.469 108.936 222.707 108.992 222.996 108.992ZM229.617 103.66V110H228.199V103.66H229.617ZM231.697 103.66V104.773H226.154V103.66H231.697ZM234.059 104.879V112.438H232.646V103.66H233.947L234.059 104.879ZM238.189 106.771V106.895C238.189 107.355 238.135 107.783 238.025 108.178C237.92 108.568 237.762 108.91 237.551 109.203C237.344 109.492 237.088 109.717 236.783 109.877C236.479 110.037 236.127 110.117 235.729 110.117C235.334 110.117 234.988 110.045 234.691 109.9C234.398 109.752 234.15 109.543 233.947 109.273C233.744 109.004 233.58 108.688 233.455 108.324C233.334 107.957 233.248 107.555 233.197 107.117V106.643C233.248 106.178 233.334 105.756 233.455 105.377C233.58 104.998 233.744 104.672 233.947 104.398C234.15 104.125 234.398 103.914 234.691 103.766C234.984 103.617 235.326 103.543 235.717 103.543C236.115 103.543 236.469 103.621 236.777 103.777C237.086 103.93 237.346 104.148 237.557 104.434C237.768 104.715 237.926 105.055 238.031 105.453C238.137 105.848 238.189 106.287 238.189 106.771ZM236.777 106.895V106.771C236.777 106.479 236.75 106.207 236.695 105.957C236.641 105.703 236.555 105.48 236.438 105.289C236.32 105.098 236.17 104.949 235.986 104.844C235.807 104.734 235.59 104.68 235.336 104.68C235.086 104.68 234.871 104.723 234.691 104.809C234.512 104.891 234.361 105.006 234.24 105.154C234.119 105.303 234.025 105.477 233.959 105.676C233.893 105.871 233.846 106.084 233.818 106.314V107.451C233.865 107.732 233.945 107.99 234.059 108.225C234.172 108.459 234.332 108.646 234.539 108.787C234.75 108.924 235.02 108.992 235.348 108.992C235.602 108.992 235.818 108.938 235.998 108.828C236.178 108.719 236.324 108.568 236.438 108.377C236.555 108.182 236.641 107.957 236.695 107.703C236.75 107.449 236.777 107.18 236.777 106.895ZM242.965 108.729V105.705C242.965 105.479 242.924 105.283 242.842 105.119C242.76 104.955 242.635 104.828 242.467 104.738C242.303 104.648 242.096 104.604 241.846 104.604C241.615 104.604 241.416 104.643 241.248 104.721C241.08 104.799 240.949 104.904 240.855 105.037C240.762 105.17 240.715 105.32 240.715 105.488H239.309C239.309 105.238 239.369 104.996 239.49 104.762C239.611 104.527 239.787 104.318 240.018 104.135C240.248 103.951 240.523 103.807 240.844 103.701C241.164 103.596 241.523 103.543 241.922 103.543C242.398 103.543 242.82 103.623 243.188 103.783C243.559 103.943 243.85 104.186 244.061 104.51C244.275 104.83 244.383 105.232 244.383 105.717V108.535C244.383 108.824 244.402 109.084 244.441 109.314C244.484 109.541 244.545 109.738 244.623 109.906V110H243.176C243.109 109.848 243.057 109.654 243.018 109.42C242.982 109.182 242.965 108.951 242.965 108.729ZM243.17 106.145L243.182 107.018H242.168C241.906 107.018 241.676 107.043 241.477 107.094C241.277 107.141 241.111 107.211 240.979 107.305C240.846 107.398 240.746 107.512 240.68 107.645C240.613 107.777 240.58 107.928 240.58 108.096C240.58 108.264 240.619 108.418 240.697 108.559C240.775 108.695 240.889 108.803 241.037 108.881C241.189 108.959 241.373 108.998 241.588 108.998C241.877 108.998 242.129 108.939 242.344 108.822C242.562 108.701 242.734 108.555 242.859 108.383C242.984 108.207 243.051 108.041 243.059 107.885L243.516 108.512C243.469 108.672 243.389 108.844 243.275 109.027C243.162 109.211 243.014 109.387 242.83 109.555C242.65 109.719 242.434 109.854 242.18 109.959C241.93 110.064 241.641 110.117 241.312 110.117C240.898 110.117 240.529 110.035 240.205 109.871C239.881 109.703 239.627 109.479 239.443 109.197C239.26 108.912 239.168 108.59 239.168 108.23C239.168 107.895 239.23 107.598 239.355 107.34C239.484 107.078 239.672 106.859 239.918 106.684C240.168 106.508 240.473 106.375 240.832 106.285C241.191 106.191 241.602 106.145 242.062 106.145H243.17ZM245.906 110V103.66H247.318V108.875H249.803V103.66H251.221V110H245.906ZM252.082 108.881L251.971 111.881H250.676V110H249.914V108.881H252.082ZM254.537 107.938L257.027 103.66H258.439V110H257.027V105.717L254.537 110H253.125V103.66H254.537V107.938ZM263.666 106.221V107.346H260.268V106.221H263.666ZM261.475 103.66V110H260.062V103.66H261.475ZM262.623 106.9V106.766C262.623 106.309 262.689 105.885 262.822 105.494C262.955 105.1 263.148 104.758 263.402 104.469C263.656 104.176 263.965 103.949 264.328 103.789C264.691 103.625 265.104 103.543 265.564 103.543C266.033 103.543 266.449 103.625 266.812 103.789C267.18 103.949 267.49 104.176 267.744 104.469C267.998 104.758 268.191 105.1 268.324 105.494C268.457 105.885 268.523 106.309 268.523 106.766V106.9C268.523 107.357 268.457 107.781 268.324 108.172C268.191 108.562 267.998 108.904 267.744 109.197C267.494 109.486 267.186 109.713 266.818 109.877C266.455 110.037 266.041 110.117 265.576 110.117C265.111 110.117 264.697 110.037 264.334 109.877C263.971 109.713 263.66 109.486 263.402 109.197C263.148 108.904 262.955 108.562 262.822 108.172C262.689 107.781 262.623 107.357 262.623 106.9ZM264.041 106.766V106.9C264.041 107.186 264.07 107.455 264.129 107.709C264.188 107.963 264.279 108.186 264.404 108.377C264.529 108.568 264.689 108.719 264.885 108.828C265.08 108.938 265.311 108.992 265.576 108.992C265.842 108.992 266.07 108.938 266.262 108.828C266.457 108.719 266.617 108.568 266.742 108.377C266.867 108.186 266.959 107.963 267.018 107.709C267.08 107.455 267.111 107.186 267.111 106.9V106.766C267.111 106.484 267.08 106.219 267.018 105.969C266.959 105.715 266.867 105.49 266.742 105.295C266.617 105.1 266.457 104.947 266.262 104.838C266.066 104.725 265.834 104.668 265.564 104.668C265.303 104.668 265.074 104.725 264.879 104.838C264.688 104.947 264.529 105.1 264.404 105.295C264.279 105.49 264.188 105.715 264.129 105.969C264.07 106.219 264.041 106.484 264.041 106.766ZM141.498 117.66V118.785H138.369V117.66H141.498ZM138.703 117.66V124H137.291V117.66H138.703ZM142.605 117.66V124H141.188V117.66H142.605ZM145.518 118.879V126.438H144.105V117.66H145.406L145.518 118.879ZM149.648 120.771V120.895C149.648 121.355 149.594 121.783 149.484 122.178C149.379 122.568 149.221 122.91 149.01 123.203C148.803 123.492 148.547 123.717 148.242 123.877C147.938 124.037 147.586 124.117 147.188 124.117C146.793 124.117 146.447 124.045 146.15 123.9C145.857 123.752 145.609 123.543 145.406 123.273C145.203 123.004 145.039 122.688 144.914 122.324C144.793 121.957 144.707 121.555 144.656 121.117V120.643C144.707 120.178 144.793 119.756 144.914 119.377C145.039 118.998 145.203 118.672 145.406 118.398C145.609 118.125 145.857 117.914 146.15 117.766C146.443 117.617 146.785 117.543 147.176 117.543C147.574 117.543 147.928 117.621 148.236 117.777C148.545 117.93 148.805 118.148 149.016 118.434C149.227 118.715 149.385 119.055 149.49 119.453C149.596 119.848 149.648 120.287 149.648 120.771ZM148.236 120.895V120.771C148.236 120.479 148.209 120.207 148.154 119.957C148.1 119.703 148.014 119.48 147.896 119.289C147.779 119.098 147.629 118.949 147.445 118.844C147.266 118.734 147.049 118.68 146.795 118.68C146.545 118.68 146.33 118.723 146.15 118.809C145.971 118.891 145.82 119.006 145.699 119.154C145.578 119.303 145.484 119.477 145.418 119.676C145.352 119.871 145.305 120.084 145.277 120.314V121.451C145.324 121.732 145.404 121.99 145.518 122.225C145.631 122.459 145.791 122.646 145.998 122.787C146.209 122.924 146.479 122.992 146.807 122.992C147.061 122.992 147.277 122.938 147.457 122.828C147.637 122.719 147.783 122.568 147.896 122.377C148.014 122.182 148.1 121.957 148.154 121.703C148.209 121.449 148.236 121.18 148.236 120.895ZM152.186 120.9H153.65L151.852 124H150.393L152.186 120.9ZM153.217 117.66H155.936V124H154.529V118.773H153.217C152.951 118.773 152.732 118.82 152.561 118.914C152.389 119.004 152.262 119.123 152.18 119.271C152.098 119.416 152.057 119.564 152.057 119.717C152.057 119.869 152.094 120.016 152.168 120.156C152.246 120.297 152.365 120.412 152.525 120.502C152.689 120.592 152.895 120.637 153.141 120.637H155.004V121.668H153.141C152.75 121.668 152.4 121.619 152.092 121.521C151.783 121.42 151.521 121.281 151.307 121.105C151.092 120.926 150.928 120.717 150.814 120.479C150.701 120.236 150.645 119.973 150.645 119.688C150.645 119.395 150.703 119.125 150.82 118.879C150.938 118.633 151.105 118.418 151.324 118.234C151.547 118.051 151.816 117.91 152.133 117.812C152.453 117.711 152.814 117.66 153.217 117.66ZM161.273 122.289L163.16 117.66H164.385L161.754 124H160.793L158.168 117.66H159.393L161.273 122.289ZM159.029 117.66V124H157.617V117.66H159.029ZM163.518 124V117.66H164.936V124H163.518ZM166.248 120.9V120.766C166.248 120.309 166.314 119.885 166.447 119.494C166.58 119.1 166.771 118.758 167.021 118.469C167.275 118.176 167.584 117.949 167.947 117.789C168.314 117.625 168.729 117.543 169.189 117.543C169.654 117.543 170.068 117.625 170.432 117.789C170.799 117.949 171.109 118.176 171.363 118.469C171.617 118.758 171.811 119.1 171.943 119.494C172.076 119.885 172.143 120.309 172.143 120.766V120.9C172.143 121.357 172.076 121.781 171.943 122.172C171.811 122.562 171.617 122.904 171.363 123.197C171.109 123.486 170.801 123.713 170.438 123.877C170.074 124.037 169.662 124.117 169.201 124.117C168.736 124.117 168.32 124.037 167.953 123.877C167.59 123.713 167.281 123.486 167.027 123.197C166.773 122.904 166.58 122.562 166.447 122.172C166.314 121.781 166.248 121.357 166.248 120.9ZM167.66 120.766V120.9C167.66 121.186 167.689 121.455 167.748 121.709C167.807 121.963 167.898 122.186 168.023 122.377C168.148 122.568 168.309 122.719 168.504 122.828C168.699 122.938 168.932 122.992 169.201 122.992C169.463 122.992 169.689 122.938 169.881 122.828C170.076 122.719 170.236 122.568 170.361 122.377C170.486 122.186 170.578 121.963 170.637 121.709C170.699 121.455 170.73 121.186 170.73 120.9V120.766C170.73 120.484 170.699 120.219 170.637 119.969C170.578 119.715 170.484 119.49 170.355 119.295C170.23 119.1 170.07 118.947 169.875 118.838C169.684 118.725 169.455 118.668 169.189 118.668C168.924 118.668 168.693 118.725 168.498 118.838C168.307 118.947 168.148 119.1 168.023 119.295C167.898 119.49 167.807 119.715 167.748 119.969C167.689 120.219 167.66 120.484 167.66 120.766ZM178.904 122.992C179.135 122.992 179.342 122.947 179.525 122.857C179.713 122.764 179.863 122.635 179.977 122.471C180.094 122.307 180.158 122.117 180.17 121.902H181.5C181.492 122.312 181.371 122.686 181.137 123.021C180.902 123.357 180.592 123.625 180.205 123.824C179.818 124.02 179.391 124.117 178.922 124.117C178.438 124.117 178.016 124.035 177.656 123.871C177.297 123.703 176.998 123.473 176.76 123.18C176.521 122.887 176.342 122.549 176.221 122.166C176.104 121.783 176.045 121.373 176.045 120.936V120.73C176.045 120.293 176.104 119.883 176.221 119.5C176.342 119.113 176.521 118.773 176.76 118.48C176.998 118.188 177.297 117.959 177.656 117.795C178.016 117.627 178.436 117.543 178.916 117.543C179.424 117.543 179.869 117.645 180.252 117.848C180.635 118.047 180.936 118.326 181.154 118.686C181.377 119.041 181.492 119.455 181.5 119.928H180.17C180.158 119.693 180.1 119.482 179.994 119.295C179.893 119.104 179.748 118.951 179.561 118.838C179.377 118.725 179.156 118.668 178.898 118.668C178.613 118.668 178.377 118.727 178.189 118.844C178.002 118.957 177.855 119.113 177.75 119.312C177.645 119.508 177.568 119.729 177.521 119.975C177.479 120.217 177.457 120.469 177.457 120.73V120.936C177.457 121.197 177.479 121.451 177.521 121.697C177.564 121.943 177.639 122.164 177.744 122.359C177.854 122.551 178.002 122.705 178.189 122.822C178.377 122.936 178.615 122.992 178.904 122.992ZM185.379 124.117C184.91 124.117 184.486 124.041 184.107 123.889C183.732 123.732 183.412 123.516 183.146 123.238C182.885 122.961 182.684 122.635 182.543 122.26C182.402 121.885 182.332 121.48 182.332 121.047V120.812C182.332 120.316 182.404 119.867 182.549 119.465C182.693 119.062 182.895 118.719 183.152 118.434C183.41 118.145 183.715 117.924 184.066 117.771C184.418 117.619 184.799 117.543 185.209 117.543C185.662 117.543 186.059 117.619 186.398 117.771C186.738 117.924 187.02 118.139 187.242 118.416C187.469 118.689 187.637 119.016 187.746 119.395C187.859 119.773 187.916 120.191 187.916 120.648V121.252H183.018V120.238H186.521V120.127C186.514 119.873 186.463 119.635 186.369 119.412C186.279 119.189 186.141 119.01 185.953 118.873C185.766 118.736 185.516 118.668 185.203 118.668C184.969 118.668 184.76 118.719 184.576 118.82C184.396 118.918 184.246 119.061 184.125 119.248C184.004 119.436 183.91 119.662 183.844 119.928C183.781 120.189 183.75 120.484 183.75 120.812V121.047C183.75 121.324 183.787 121.582 183.861 121.82C183.939 122.055 184.053 122.26 184.201 122.436C184.35 122.611 184.529 122.75 184.74 122.852C184.951 122.949 185.191 122.998 185.461 122.998C185.801 122.998 186.104 122.93 186.369 122.793C186.635 122.656 186.865 122.463 187.061 122.213L187.805 122.934C187.668 123.133 187.49 123.324 187.271 123.508C187.053 123.688 186.785 123.834 186.469 123.947C186.156 124.061 185.793 124.117 185.379 124.117ZM190.477 121.938L192.967 117.66H194.379V124H192.967V119.717L190.477 124H189.064V117.66H190.477V121.938ZM192.592 115.223H193.641C193.641 115.547 193.562 115.834 193.406 116.084C193.254 116.33 193.035 116.523 192.75 116.664C192.469 116.805 192.133 116.875 191.742 116.875C191.152 116.875 190.686 116.723 190.342 116.418C190.002 116.109 189.832 115.711 189.832 115.223H190.881C190.881 115.441 190.945 115.635 191.074 115.803C191.207 115.967 191.43 116.049 191.742 116.049C192.051 116.049 192.27 115.967 192.398 115.803C192.527 115.635 192.592 115.441 192.592 115.223ZM200.965 117.66V124H199.553V117.66H200.965ZM200.367 120.467V121.586C200.195 121.66 200.002 121.729 199.787 121.791C199.576 121.85 199.354 121.898 199.119 121.938C198.885 121.973 198.648 121.99 198.41 121.99C197.852 121.99 197.369 121.904 196.963 121.732C196.561 121.561 196.25 121.297 196.031 120.941C195.816 120.582 195.709 120.127 195.709 119.576V117.654H197.115V119.576C197.115 119.893 197.162 120.145 197.256 120.332C197.354 120.52 197.498 120.654 197.689 120.736C197.881 120.818 198.121 120.859 198.41 120.859C198.652 120.859 198.881 120.844 199.096 120.812C199.311 120.777 199.523 120.73 199.734 120.672C199.945 120.613 200.156 120.545 200.367 120.467ZM206.045 122.729V119.705C206.045 119.479 206.004 119.283 205.922 119.119C205.84 118.955 205.715 118.828 205.547 118.738C205.383 118.648 205.176 118.604 204.926 118.604C204.695 118.604 204.496 118.643 204.328 118.721C204.16 118.799 204.029 118.904 203.936 119.037C203.842 119.17 203.795 119.32 203.795 119.488H202.389C202.389 119.238 202.449 118.996 202.57 118.762C202.691 118.527 202.867 118.318 203.098 118.135C203.328 117.951 203.604 117.807 203.924 117.701C204.244 117.596 204.604 117.543 205.002 117.543C205.479 117.543 205.9 117.623 206.268 117.783C206.639 117.943 206.93 118.186 207.141 118.51C207.355 118.83 207.463 119.232 207.463 119.717V122.535C207.463 122.824 207.482 123.084 207.521 123.314C207.564 123.541 207.625 123.738 207.703 123.906V124H206.256C206.189 123.848 206.137 123.654 206.098 123.42C206.062 123.182 206.045 122.951 206.045 122.729ZM206.25 120.145L206.262 121.018H205.248C204.986 121.018 204.756 121.043 204.557 121.094C204.357 121.141 204.191 121.211 204.059 121.305C203.926 121.398 203.826 121.512 203.76 121.645C203.693 121.777 203.66 121.928 203.66 122.096C203.66 122.264 203.699 122.418 203.777 122.559C203.855 122.695 203.969 122.803 204.117 122.881C204.27 122.959 204.453 122.998 204.668 122.998C204.957 122.998 205.209 122.939 205.424 122.822C205.643 122.701 205.814 122.555 205.939 122.383C206.064 122.207 206.131 122.041 206.139 121.885L206.596 122.512C206.549 122.672 206.469 122.844 206.355 123.027C206.242 123.211 206.094 123.387 205.91 123.555C205.73 123.719 205.514 123.854 205.26 123.959C205.01 124.064 204.721 124.117 204.393 124.117C203.979 124.117 203.609 124.035 203.285 123.871C202.961 123.703 202.707 123.479 202.523 123.197C202.34 122.912 202.248 122.59 202.248 122.23C202.248 121.895 202.311 121.598 202.436 121.34C202.564 121.078 202.752 120.859 202.998 120.684C203.248 120.508 203.553 120.375 203.912 120.285C204.271 120.191 204.682 120.145 205.143 120.145H206.25ZM211.529 122.992C211.76 122.992 211.967 122.947 212.15 122.857C212.338 122.764 212.488 122.635 212.602 122.471C212.719 122.307 212.783 122.117 212.795 121.902H214.125C214.117 122.312 213.996 122.686 213.762 123.021C213.527 123.357 213.217 123.625 212.83 123.824C212.443 124.02 212.016 124.117 211.547 124.117C211.062 124.117 210.641 124.035 210.281 123.871C209.922 123.703 209.623 123.473 209.385 123.18C209.146 122.887 208.967 122.549 208.846 122.166C208.729 121.783 208.67 121.373 208.67 120.936V120.73C208.67 120.293 208.729 119.883 208.846 119.5C208.967 119.113 209.146 118.773 209.385 118.48C209.623 118.188 209.922 117.959 210.281 117.795C210.641 117.627 211.061 117.543 211.541 117.543C212.049 117.543 212.494 117.645 212.877 117.848C213.26 118.047 213.561 118.326 213.779 118.686C214.002 119.041 214.117 119.455 214.125 119.928H212.795C212.783 119.693 212.725 119.482 212.619 119.295C212.518 119.104 212.373 118.951 212.186 118.838C212.002 118.725 211.781 118.668 211.523 118.668C211.238 118.668 211.002 118.727 210.814 118.844C210.627 118.957 210.48 119.113 210.375 119.312C210.27 119.508 210.193 119.729 210.146 119.975C210.104 120.217 210.082 120.469 210.082 120.73V120.936C210.082 121.197 210.104 121.451 210.146 121.697C210.189 121.943 210.264 122.164 210.369 122.359C210.479 122.551 210.627 122.705 210.814 122.822C211.002 122.936 211.24 122.992 211.529 122.992Z"
              fill="white"
            />
          </g>
          <g filter="url(#filter1_d_2569_36)">
            <path
              d="M43.0391 30.9375H46.2734V45.4688H51.2891V30.9375H54.5117V45.4688H59.4805V30.9375H62.7031V48H43.0391V30.9375ZM68.8438 43.582L73.4609 35.3203H76.5664V48H73.4609V39.7266L68.8438 48H65.7383V35.3203H68.8438V43.582ZM82.4727 37.7578V52.875H79.3672V35.3203H82.2383L82.4727 37.7578ZM90.6172 41.5312V41.7773C90.6172 42.6992 90.5078 43.5547 90.2891 44.3438C90.0781 45.125 89.7656 45.8086 89.3516 46.3945C88.9375 46.9727 88.4219 47.4258 87.8047 47.7539C87.1953 48.0742 86.4922 48.2344 85.6953 48.2344C84.9141 48.2344 84.2344 48.0859 83.6562 47.7891C83.0781 47.4844 82.5898 47.0547 82.1914 46.5C81.793 45.9453 81.4727 45.3008 81.2305 44.5664C80.9961 43.8242 80.8203 43.0156 80.7031 42.1406V41.3555C80.8203 40.4258 80.9961 39.582 81.2305 38.8242C81.4727 38.0586 81.793 37.3984 82.1914 36.8438C82.5898 36.2812 83.0742 35.8477 83.6445 35.543C84.2227 35.2383 84.8984 35.0859 85.6719 35.0859C86.4766 35.0859 87.1836 35.2383 87.793 35.543C88.4102 35.8477 88.9297 36.2852 89.3516 36.8555C89.7734 37.4258 90.0898 38.1055 90.3008 38.8945C90.5117 39.6836 90.6172 40.5625 90.6172 41.5312ZM87.5117 41.7773V41.5312C87.5117 40.9688 87.4609 40.4492 87.3594 39.9727C87.2578 39.4883 87.1016 39.0664 86.8906 38.707C86.6797 38.3398 86.4062 38.0547 86.0703 37.8516C85.7344 37.6484 85.3281 37.5469 84.8516 37.5469C84.375 37.5469 83.9648 37.625 83.6211 37.7812C83.2773 37.9375 82.9961 38.1602 82.7773 38.4492C82.5586 38.7383 82.3867 39.082 82.2617 39.4805C82.1445 39.8711 82.0664 40.3047 82.0273 40.7812V42.7266C82.0977 43.3047 82.2344 43.8242 82.4375 44.2852C82.6406 44.7461 82.9375 45.1133 83.3281 45.3867C83.7266 45.6602 84.2422 45.7969 84.875 45.7969C85.3516 45.7969 85.7578 45.6914 86.0938 45.4805C86.4297 45.2695 86.7031 44.9805 86.9141 44.6133C87.125 44.2383 87.2773 43.8086 87.3711 43.3242C87.4648 42.8398 87.5117 42.3242 87.5117 41.7773ZM92.3281 41.7891V41.543C92.3281 40.6133 92.4609 39.7578 92.7266 38.9766C92.9922 38.1875 93.3789 37.5039 93.8867 36.9258C94.3945 36.3477 95.0156 35.8984 95.75 35.5781C96.4844 35.25 97.3203 35.0859 98.2578 35.0859C99.2109 35.0859 100.055 35.25 100.789 35.5781C101.531 35.8984 102.156 36.3477 102.664 36.9258C103.172 37.5039 103.559 38.1875 103.824 38.9766C104.09 39.7578 104.223 40.6133 104.223 41.543V41.7891C104.223 42.7109 104.09 43.5664 103.824 44.3555C103.559 45.1367 103.172 45.8203 102.664 46.4062C102.156 46.9844 101.535 47.4336 100.801 47.7539C100.066 48.0742 99.2266 48.2344 98.2812 48.2344C97.3438 48.2344 96.5039 48.0742 95.7617 47.7539C95.0195 47.4336 94.3945 46.9844 93.8867 46.4062C93.3789 45.8203 92.9922 45.1367 92.7266 44.3555C92.4609 43.5664 92.3281 42.7109 92.3281 41.7891ZM95.4219 41.543V41.7891C95.4219 42.3438 95.4766 42.8633 95.5859 43.3477C95.6953 43.832 95.8633 44.2578 96.0898 44.625C96.3164 44.9922 96.6094 45.2812 96.9688 45.4922C97.3359 45.6953 97.7734 45.7969 98.2812 45.7969C98.7812 45.7969 99.2109 45.6953 99.5703 45.4922C99.9297 45.2812 100.223 44.9922 100.449 44.625C100.684 44.2578 100.855 43.832 100.965 43.3477C101.074 42.8633 101.129 42.3438 101.129 41.7891V41.543C101.129 40.9961 101.074 40.4844 100.965 40.0078C100.855 39.5234 100.684 39.0977 100.449 38.7305C100.223 38.3555 99.9258 38.0625 99.5586 37.8516C99.1992 37.6328 98.7656 37.5234 98.2578 37.5234C97.7578 37.5234 97.3281 37.6328 96.9688 37.8516C96.6094 38.0625 96.3164 38.3555 96.0898 38.7305C95.8633 39.0977 95.6953 39.5234 95.5859 40.0078C95.4766 40.4844 95.4219 40.9961 95.4219 41.543ZM109.777 35.3203V48H106.684V35.3203H109.777ZM118.039 35.3203L112.449 43.1016H109.156L108.77 40.2656H111.055L114.137 35.3203H118.039ZM114.324 48L110.855 42.5625L113.434 40.9453L118.438 48H114.324ZM122.984 43.582L127.602 35.3203H130.707V48H127.602V39.7266L122.984 48H119.879V35.3203H122.984V43.582ZM139.215 48.2344C138.254 48.2344 137.391 48.0781 136.625 47.7656C135.859 47.4531 135.207 47.0195 134.668 46.4648C134.137 45.9023 133.727 45.25 133.438 44.5078C133.156 43.7578 133.016 42.9531 133.016 42.0938V41.625C133.016 40.6484 133.156 39.7617 133.438 38.9648C133.719 38.1602 134.117 37.4688 134.633 36.8906C135.148 36.3125 135.766 35.8672 136.484 35.5547C137.203 35.2422 137.996 35.0859 138.863 35.0859C139.762 35.0859 140.555 35.2383 141.242 35.543C141.93 35.8398 142.504 36.2617 142.965 36.8086C143.426 37.3555 143.773 38.0117 144.008 38.7773C144.242 39.5352 144.359 40.375 144.359 41.2969V42.5977H134.422V40.4648H141.312V40.2305C141.297 39.7383 141.203 39.2891 141.031 38.8828C140.859 38.4688 140.594 38.1406 140.234 37.8984C139.875 37.6484 139.41 37.5234 138.84 37.5234C138.379 37.5234 137.977 37.625 137.633 37.8281C137.297 38.0234 137.016 38.3047 136.789 38.6719C136.57 39.0312 136.406 39.4609 136.297 39.9609C136.188 40.4609 136.133 41.0156 136.133 41.625V42.0938C136.133 42.625 136.203 43.1172 136.344 43.5703C136.492 44.0234 136.707 44.418 136.988 44.7539C137.277 45.082 137.621 45.3398 138.02 45.5273C138.426 45.707 138.887 45.7969 139.402 45.7969C140.051 45.7969 140.637 45.6719 141.16 45.4219C141.691 45.1641 142.152 44.7852 142.543 44.2852L144.102 45.9023C143.836 46.293 143.477 46.668 143.023 47.0273C142.578 47.3867 142.039 47.6797 141.406 47.9062C140.773 48.125 140.043 48.2344 139.215 48.2344ZM158.645 42.6328H154.625L154.602 40.5352H157.906C158.398 40.5352 158.801 40.4844 159.113 40.3828C159.426 40.2812 159.656 40.1289 159.805 39.9258C159.961 39.7227 160.039 39.4766 160.039 39.1875C160.039 38.9375 159.992 38.7227 159.898 38.543C159.805 38.3555 159.664 38.2031 159.477 38.0859C159.297 37.9688 159.066 37.8828 158.785 37.8281C158.512 37.7656 158.191 37.7344 157.824 37.7344H155.727V48H152.621V35.3203H157.824C158.645 35.3203 159.383 35.3945 160.039 35.543C160.695 35.6836 161.254 35.8984 161.715 36.1875C162.176 36.4766 162.527 36.8438 162.77 37.2891C163.02 37.7266 163.145 38.2422 163.145 38.8359C163.145 39.2266 163.059 39.5938 162.887 39.9375C162.715 40.2812 162.461 40.5859 162.125 40.8516C161.789 41.1172 161.375 41.3359 160.883 41.5078C160.391 41.6719 159.828 41.7734 159.195 41.8125L158.645 42.6328ZM158.645 48H153.793L154.941 45.5859H158.645C159.098 45.5859 159.473 45.5312 159.77 45.4219C160.066 45.3047 160.285 45.1367 160.426 44.918C160.574 44.6992 160.648 44.4336 160.648 44.1211C160.648 43.8164 160.578 43.5547 160.438 43.3359C160.305 43.1094 160.09 42.9375 159.793 42.8203C159.504 42.6953 159.121 42.6328 158.645 42.6328H155.445L155.469 40.5352H159.184L160.004 41.3672C160.848 41.4219 161.547 41.5938 162.102 41.8828C162.656 42.1641 163.07 42.5234 163.344 42.9609C163.617 43.3906 163.754 43.8633 163.754 44.3789C163.754 44.9805 163.641 45.5078 163.414 45.9609C163.188 46.4141 162.855 46.793 162.418 47.0977C161.98 47.3945 161.445 47.6211 160.812 47.7773C160.18 47.9258 159.457 48 158.645 48ZM165.453 41.7891V41.543C165.453 40.6133 165.586 39.7578 165.852 38.9766C166.117 38.1875 166.504 37.5039 167.012 36.9258C167.52 36.3477 168.141 35.8984 168.875 35.5781C169.609 35.25 170.445 35.0859 171.383 35.0859C172.336 35.0859 173.18 35.25 173.914 35.5781C174.656 35.8984 175.281 36.3477 175.789 36.9258C176.297 37.5039 176.684 38.1875 176.949 38.9766C177.215 39.7578 177.348 40.6133 177.348 41.543V41.7891C177.348 42.7109 177.215 43.5664 176.949 44.3555C176.684 45.1367 176.297 45.8203 175.789 46.4062C175.281 46.9844 174.66 47.4336 173.926 47.7539C173.191 48.0742 172.352 48.2344 171.406 48.2344C170.469 48.2344 169.629 48.0742 168.887 47.7539C168.145 47.4336 167.52 46.9844 167.012 46.4062C166.504 45.8203 166.117 45.1367 165.852 44.3555C165.586 43.5664 165.453 42.7109 165.453 41.7891ZM168.547 41.543V41.7891C168.547 42.3438 168.602 42.8633 168.711 43.3477C168.82 43.832 168.988 44.2578 169.215 44.625C169.441 44.9922 169.734 45.2812 170.094 45.4922C170.461 45.6953 170.898 45.7969 171.406 45.7969C171.906 45.7969 172.336 45.6953 172.695 45.4922C173.055 45.2812 173.348 44.9922 173.574 44.625C173.809 44.2578 173.98 43.832 174.09 43.3477C174.199 42.8633 174.254 42.3438 174.254 41.7891V41.543C174.254 40.9961 174.199 40.4844 174.09 40.0078C173.98 39.5234 173.809 39.0977 173.574 38.7305C173.348 38.3555 173.051 38.0625 172.684 37.8516C172.324 37.6328 171.891 37.5234 171.383 37.5234C170.883 37.5234 170.453 37.6328 170.094 37.8516C169.734 38.0625 169.441 38.3555 169.215 38.7305C168.988 39.0977 168.82 39.5234 168.711 40.0078C168.602 40.4844 168.547 40.9961 168.547 41.543ZM185.035 41.9531H182.562V40.4766H184.449C184.91 40.4766 185.277 40.4141 185.551 40.2891C185.832 40.1641 186.031 39.9883 186.148 39.7617C186.273 39.5352 186.336 39.2734 186.336 38.9766C186.336 38.7109 186.277 38.4609 186.16 38.2266C186.043 37.9844 185.848 37.7891 185.574 37.6406C185.301 37.4844 184.922 37.4062 184.438 37.4062C184.039 37.4062 183.684 37.4688 183.371 37.5938C183.059 37.7188 182.812 37.8945 182.633 38.1211C182.453 38.3477 182.363 38.6172 182.363 38.9297H179.258C179.258 38.1328 179.484 37.4492 179.938 36.8789C180.398 36.3086 181.012 35.8711 181.777 35.5664C182.543 35.2539 183.383 35.0977 184.297 35.0977C185.086 35.0977 185.797 35.1797 186.43 35.3438C187.062 35.5 187.602 35.7344 188.047 36.0469C188.492 36.3594 188.836 36.7461 189.078 37.207C189.32 37.6602 189.441 38.1875 189.441 38.7891C189.441 39.2188 189.34 39.625 189.137 40.0078C188.934 40.3906 188.641 40.7305 188.258 41.0273C187.875 41.3164 187.41 41.543 186.863 41.707C186.324 41.8711 185.715 41.9531 185.035 41.9531ZM182.562 41.1094H185.035C185.793 41.1094 186.457 41.1836 187.027 41.332C187.605 41.4727 188.09 41.6836 188.48 41.9648C188.871 42.2461 189.164 42.5938 189.359 43.0078C189.562 43.4141 189.664 43.8828 189.664 44.4141C189.664 45.0156 189.531 45.5547 189.266 46.0312C189.008 46.5 188.641 46.8984 188.164 47.2266C187.688 47.5547 187.121 47.8047 186.465 47.9766C185.809 48.1484 185.086 48.2344 184.297 48.2344C183.445 48.2344 182.617 48.0938 181.812 47.8125C181.016 47.5312 180.355 47.0977 179.832 46.5117C179.316 45.9258 179.059 45.1719 179.059 44.25H182.164C182.164 44.5469 182.254 44.8242 182.434 45.082C182.613 45.3398 182.871 45.5469 183.207 45.7031C183.551 45.8516 183.965 45.9258 184.449 45.9258C184.941 45.9258 185.344 45.8477 185.656 45.6914C185.969 45.5352 186.195 45.3281 186.336 45.0703C186.484 44.8047 186.559 44.5273 186.559 44.2383C186.559 43.8398 186.48 43.5195 186.324 43.2773C186.176 43.0273 185.941 42.8438 185.621 42.7266C185.309 42.6094 184.918 42.5508 184.449 42.5508H182.562V41.1094ZM199.508 44.3438L203.07 35.3203H205.66L200.562 48H198.465L193.379 35.3203H195.98L199.508 44.3438ZM195.219 35.3203V48H192.113V35.3203H195.219ZM203.855 48V35.3203H206.961V48H203.855ZM209.492 41.7891V41.543C209.492 40.6133 209.625 39.7578 209.891 38.9766C210.156 38.1875 210.543 37.5039 211.051 36.9258C211.559 36.3477 212.18 35.8984 212.914 35.5781C213.648 35.25 214.484 35.0859 215.422 35.0859C216.375 35.0859 217.219 35.25 217.953 35.5781C218.695 35.8984 219.32 36.3477 219.828 36.9258C220.336 37.5039 220.723 38.1875 220.988 38.9766C221.254 39.7578 221.387 40.6133 221.387 41.543V41.7891C221.387 42.7109 221.254 43.5664 220.988 44.3555C220.723 45.1367 220.336 45.8203 219.828 46.4062C219.32 46.9844 218.699 47.4336 217.965 47.7539C217.23 48.0742 216.391 48.2344 215.445 48.2344C214.508 48.2344 213.668 48.0742 212.926 47.7539C212.184 47.4336 211.559 46.9844 211.051 46.4062C210.543 45.8203 210.156 45.1367 209.891 44.3555C209.625 43.5664 209.492 42.7109 209.492 41.7891ZM212.586 41.543V41.7891C212.586 42.3438 212.641 42.8633 212.75 43.3477C212.859 43.832 213.027 44.2578 213.254 44.625C213.48 44.9922 213.773 45.2812 214.133 45.4922C214.5 45.6953 214.938 45.7969 215.445 45.7969C215.945 45.7969 216.375 45.6953 216.734 45.4922C217.094 45.2812 217.387 44.9922 217.613 44.625C217.848 44.2578 218.02 43.832 218.129 43.3477C218.238 42.8633 218.293 42.3438 218.293 41.7891V41.543C218.293 40.9961 218.238 40.4844 218.129 40.0078C218.02 39.5234 217.848 39.0977 217.613 38.7305C217.387 38.3555 217.09 38.0625 216.723 37.8516C216.363 37.6328 215.93 37.5234 215.422 37.5234C214.922 37.5234 214.492 37.6328 214.133 37.8516C213.773 38.0625 213.48 38.3555 213.254 38.7305C213.027 39.0977 212.859 39.5234 212.75 40.0078C212.641 40.4844 212.586 40.9961 212.586 41.543ZM227.703 43.0547L222.547 35.3203H226.367L229.191 40.207H231.641L231.254 43.0547H227.703ZM229.25 42.5625L226.18 48H222.418L226.812 40.9453L229.25 42.5625ZM233.586 35.3203V48H230.492V35.3203H233.586ZM241.566 35.3203L236.398 43.0547H232.848L232.461 40.207H234.91L237.734 35.3203H241.566ZM237.922 48L234.852 42.5625L237.371 40.9453L241.754 48H237.922ZM252.125 40.5234V42.9492H245.621V40.5234H252.125ZM246.594 35.3203V48H243.488V35.3203H246.594ZM254.293 35.3203V48H251.176V35.3203H254.293ZM256.555 41.7891V41.543C256.555 40.6133 256.688 39.7578 256.953 38.9766C257.219 38.1875 257.605 37.5039 258.113 36.9258C258.621 36.3477 259.242 35.8984 259.977 35.5781C260.711 35.25 261.547 35.0859 262.484 35.0859C263.438 35.0859 264.281 35.25 265.016 35.5781C265.758 35.8984 266.383 36.3477 266.891 36.9258C267.398 37.5039 267.785 38.1875 268.051 38.9766C268.316 39.7578 268.449 40.6133 268.449 41.543V41.7891C268.449 42.7109 268.316 43.5664 268.051 44.3555C267.785 45.1367 267.398 45.8203 266.891 46.4062C266.383 46.9844 265.762 47.4336 265.027 47.7539C264.293 48.0742 263.453 48.2344 262.508 48.2344C261.57 48.2344 260.73 48.0742 259.988 47.7539C259.246 47.4336 258.621 46.9844 258.113 46.4062C257.605 45.8203 257.219 45.1367 256.953 44.3555C256.688 43.5664 256.555 42.7109 256.555 41.7891ZM259.648 41.543V41.7891C259.648 42.3438 259.703 42.8633 259.812 43.3477C259.922 43.832 260.09 44.2578 260.316 44.625C260.543 44.9922 260.836 45.2812 261.195 45.4922C261.562 45.6953 262 45.7969 262.508 45.7969C263.008 45.7969 263.438 45.6953 263.797 45.4922C264.156 45.2812 264.449 44.9922 264.676 44.625C264.91 44.2578 265.082 43.832 265.191 43.3477C265.301 42.8633 265.355 42.3438 265.355 41.7891V41.543C265.355 40.9961 265.301 40.4844 265.191 40.0078C265.082 39.5234 264.91 39.0977 264.676 38.7305C264.449 38.3555 264.152 38.0625 263.785 37.8516C263.426 37.6328 262.992 37.5234 262.484 37.5234C261.984 37.5234 261.555 37.6328 261.195 37.8516C260.836 38.0625 260.543 38.3555 260.316 38.7305C260.09 39.0977 259.922 39.5234 259.812 40.0078C259.703 40.4844 259.648 40.9961 259.648 41.543ZM275.902 45.7969C276.34 45.7969 276.73 45.7109 277.074 45.5391C277.418 45.3672 277.691 45.125 277.895 44.8125C278.105 44.5 278.219 44.1367 278.234 43.7227H281.152C281.137 44.582 280.895 45.3516 280.426 46.0312C279.957 46.7109 279.332 47.25 278.551 47.6484C277.777 48.0391 276.91 48.2344 275.949 48.2344C274.973 48.2344 274.121 48.0703 273.395 47.7422C272.668 47.4141 272.062 46.957 271.578 46.3711C271.102 45.7852 270.742 45.1055 270.5 44.332C270.266 43.5586 270.148 42.7305 270.148 41.8477V41.4727C270.148 40.5898 270.266 39.7617 270.5 38.9883C270.742 38.2148 271.102 37.5352 271.578 36.9492C272.062 36.3633 272.668 35.9062 273.395 35.5781C274.121 35.25 274.969 35.0859 275.938 35.0859C276.961 35.0859 277.859 35.2852 278.633 35.6836C279.414 36.082 280.023 36.6445 280.461 37.3711C280.906 38.0977 281.137 38.9531 281.152 39.9375H278.234C278.219 39.4844 278.117 39.0781 277.93 38.7188C277.742 38.3594 277.477 38.0703 277.133 37.8516C276.789 37.6328 276.371 37.5234 275.879 37.5234C275.355 37.5234 274.918 37.6328 274.566 37.8516C274.223 38.0703 273.953 38.3711 273.758 38.7539C273.57 39.1289 273.438 39.5508 273.359 40.0195C273.289 40.4805 273.254 40.9648 273.254 41.4727V41.8477C273.254 42.3633 273.289 42.8555 273.359 43.3242C273.438 43.793 273.57 44.2148 273.758 44.5898C273.953 44.957 274.223 45.25 274.566 45.4688C274.918 45.6875 275.363 45.7969 275.902 45.7969ZM289.367 35.3203V48H286.262V35.3203H289.367ZM293.492 35.3203V37.7344H282.207V35.3203H293.492ZM298.438 43.582L303.055 35.3203H306.16V48H303.055V39.7266L298.438 48H295.332V35.3203H298.438V43.582ZM58.6719 61.3203H61.7656L61.6484 65.6797C61.6094 67 61.4531 68.1406 61.1797 69.1016C60.9141 70.0547 60.5586 70.8555 60.1133 71.5039C59.6758 72.1523 59.1758 72.6758 58.6133 73.0742C58.0586 73.4727 57.4766 73.7812 56.8672 74H56.1289L56.1172 71.5859L56.4805 71.5625C56.8477 71.1719 57.1562 70.7891 57.4062 70.4141C57.6641 70.0312 57.8711 69.6211 58.0273 69.1836C58.1836 68.7461 58.3008 68.2461 58.3789 67.6836C58.4648 67.1133 58.5195 66.4453 58.543 65.6797L58.6719 61.3203ZM59.5039 61.3203H67.7188V74H64.625V63.8633H59.5039V61.3203ZM55.4258 71.5625H69.4883V77.7969H66.3945V74H58.5781V77.7969H55.4141L55.4258 71.5625ZM79.9062 61.3203V63.7695H73.6953V61.3203H79.9062ZM82.2383 61.3203V74H79.1445V61.3203H82.2383ZM72.9219 61.3203H75.9805L75.6406 67.6484C75.5859 68.5781 75.4883 69.3945 75.3477 70.0977C75.207 70.793 75.0195 71.3906 74.7852 71.8906C74.5508 72.3828 74.2656 72.7852 73.9297 73.0977C73.5938 73.4102 73.2031 73.6406 72.7578 73.7891C72.3203 73.9297 71.8281 74 71.2812 74H70.332L70.2969 71.5039L70.7422 71.4688C71.0156 71.4453 71.25 71.3711 71.4453 71.2461C71.6484 71.1211 71.8203 70.9414 71.9609 70.707C72.1094 70.4727 72.2305 70.1719 72.3242 69.8047C72.4258 69.4297 72.5039 68.9922 72.5586 68.4922C72.6211 67.9844 72.6641 67.3984 72.6875 66.7344L72.9219 61.3203ZM87.7695 67.7422H90.9453L87.3828 74H84.207L87.7695 67.7422ZM89.9258 61.3203H95.4336V74H92.3398V63.7344H89.9258C89.4336 63.7344 89.0234 63.8242 88.6953 64.0039C88.375 64.1836 88.1367 64.4141 87.9805 64.6953C87.8242 64.9688 87.7461 65.25 87.7461 65.5391C87.7461 65.8203 87.8203 66.0938 87.9688 66.3594C88.1172 66.625 88.3438 66.8438 88.6484 67.0156C88.9609 67.1875 89.3516 67.2734 89.8203 67.2734H93.4414V69.4531H89.8203C89.0156 69.4531 88.293 69.3555 87.6523 69.1602C87.0195 68.957 86.4766 68.6758 86.0234 68.3164C85.5781 67.957 85.2383 67.5352 85.0039 67.0508C84.7695 66.5586 84.6523 66.0234 84.6523 65.4453C84.6523 64.8516 84.7695 64.3047 85.0039 63.8047C85.2461 63.3047 85.5938 62.8672 86.0469 62.4922C86.5078 62.1172 87.0625 61.8281 87.7109 61.625C88.3672 61.4219 89.1055 61.3203 89.9258 61.3203ZM110.668 68.6328H106.648L106.625 66.5352H109.93C110.422 66.5352 110.824 66.4844 111.137 66.3828C111.449 66.2812 111.68 66.1289 111.828 65.9258C111.984 65.7227 112.062 65.4766 112.062 65.1875C112.062 64.9375 112.016 64.7227 111.922 64.543C111.828 64.3555 111.688 64.2031 111.5 64.0859C111.32 63.9688 111.09 63.8828 110.809 63.8281C110.535 63.7656 110.215 63.7344 109.848 63.7344H107.75V74H104.645V61.3203H109.848C110.668 61.3203 111.406 61.3945 112.062 61.543C112.719 61.6836 113.277 61.8984 113.738 62.1875C114.199 62.4766 114.551 62.8438 114.793 63.2891C115.043 63.7266 115.168 64.2422 115.168 64.8359C115.168 65.2266 115.082 65.5938 114.91 65.9375C114.738 66.2812 114.484 66.5859 114.148 66.8516C113.812 67.1172 113.398 67.3359 112.906 67.5078C112.414 67.6719 111.852 67.7734 111.219 67.8125L110.668 68.6328ZM110.668 74H105.816L106.965 71.5859H110.668C111.121 71.5859 111.496 71.5312 111.793 71.4219C112.09 71.3047 112.309 71.1367 112.449 70.918C112.598 70.6992 112.672 70.4336 112.672 70.1211C112.672 69.8164 112.602 69.5547 112.461 69.3359C112.328 69.1094 112.113 68.9375 111.816 68.8203C111.527 68.6953 111.145 68.6328 110.668 68.6328H107.469L107.492 66.5352H111.207L112.027 67.3672C112.871 67.4219 113.57 67.5938 114.125 67.8828C114.68 68.1641 115.094 68.5234 115.367 68.9609C115.641 69.3906 115.777 69.8633 115.777 70.3789C115.777 70.9805 115.664 71.5078 115.438 71.9609C115.211 72.4141 114.879 72.793 114.441 73.0977C114.004 73.3945 113.469 73.6211 112.836 73.7773C112.203 73.9258 111.48 74 110.668 74ZM125.012 71.3047V65.457C125.012 65.0273 124.938 64.6562 124.789 64.3438C124.641 64.0312 124.414 63.7891 124.109 63.6172C123.805 63.4453 123.418 63.3594 122.949 63.3594C122.535 63.3594 122.172 63.4297 121.859 63.5703C121.555 63.7109 121.32 63.9102 121.156 64.168C120.992 64.418 120.91 64.707 120.91 65.0352H117.805C117.805 64.5117 117.93 64.0156 118.18 63.5469C118.43 63.0703 118.785 62.6484 119.246 62.2812C119.715 61.9062 120.273 61.6133 120.922 61.4023C121.578 61.1914 122.312 61.0859 123.125 61.0859C124.086 61.0859 124.941 61.25 125.691 61.5781C126.449 61.8984 127.043 62.3828 127.473 63.0312C127.91 63.6797 128.129 64.4961 128.129 65.4805V71.0117C128.129 71.6445 128.168 72.1875 128.246 72.6406C128.332 73.0859 128.457 73.4727 128.621 73.8008V74H125.469C125.32 73.6797 125.207 73.2734 125.129 72.7812C125.051 72.2812 125.012 71.7891 125.012 71.3047ZM125.445 66.2773L125.469 68.1172H123.512C123.027 68.1172 122.602 68.168 122.234 68.2695C121.867 68.3633 121.566 68.5039 121.332 68.6914C121.098 68.8711 120.922 69.0898 120.805 69.3477C120.688 69.5977 120.629 69.8828 120.629 70.2031C120.629 70.5156 120.699 70.7969 120.84 71.0469C120.988 71.2969 121.199 71.4961 121.473 71.6445C121.754 71.7852 122.082 71.8555 122.457 71.8555C123.004 71.8555 123.48 71.7461 123.887 71.5273C124.293 71.3008 124.609 71.0273 124.836 70.707C125.062 70.3867 125.184 70.082 125.199 69.793L126.09 71.1289C125.98 71.4492 125.816 71.7891 125.598 72.1484C125.379 72.5078 125.098 72.8438 124.754 73.1562C124.41 73.4688 123.996 73.7266 123.512 73.9297C123.027 74.1328 122.465 74.2344 121.824 74.2344C121.004 74.2344 120.27 74.0703 119.621 73.7422C118.973 73.4141 118.461 72.9648 118.086 72.3945C117.711 71.8242 117.523 71.1758 117.523 70.4492C117.523 69.7773 117.648 69.1836 117.898 68.668C118.148 68.1523 118.52 67.7188 119.012 67.3672C119.504 67.0078 120.113 66.7383 120.84 66.5586C121.574 66.3711 122.414 66.2773 123.359 66.2773H125.445ZM130.941 61.3203H134.047V71.5625H137.809V61.3203H140.926V71.5625H144.688V61.3203H147.781V74H130.941V61.3203ZM156.371 74.2344C155.41 74.2344 154.547 74.0781 153.781 73.7656C153.016 73.4531 152.363 73.0195 151.824 72.4648C151.293 71.9023 150.883 71.25 150.594 70.5078C150.312 69.7578 150.172 68.9531 150.172 68.0938V67.625C150.172 66.6484 150.312 65.7617 150.594 64.9648C150.875 64.1602 151.273 63.4688 151.789 62.8906C152.305 62.3125 152.922 61.8672 153.641 61.5547C154.359 61.2422 155.152 61.0859 156.02 61.0859C156.918 61.0859 157.711 61.2383 158.398 61.543C159.086 61.8398 159.66 62.2617 160.121 62.8086C160.582 63.3555 160.93 64.0117 161.164 64.7773C161.398 65.5352 161.516 66.375 161.516 67.2969V68.5977H151.578V66.4648H158.469V66.2305C158.453 65.7383 158.359 65.2891 158.188 64.8828C158.016 64.4688 157.75 64.1406 157.391 63.8984C157.031 63.6484 156.566 63.5234 155.996 63.5234C155.535 63.5234 155.133 63.625 154.789 63.8281C154.453 64.0234 154.172 64.3047 153.945 64.6719C153.727 65.0312 153.562 65.4609 153.453 65.9609C153.344 66.4609 153.289 67.0156 153.289 67.625V68.0938C153.289 68.625 153.359 69.1172 153.5 69.5703C153.648 70.0234 153.863 70.418 154.145 70.7539C154.434 71.082 154.777 71.3398 155.176 71.5273C155.582 71.707 156.043 71.7969 156.559 71.7969C157.207 71.7969 157.793 71.6719 158.316 71.4219C158.848 71.1641 159.309 70.7852 159.699 70.2852L161.258 71.9023C160.992 72.293 160.633 72.668 160.18 73.0273C159.734 73.3867 159.195 73.6797 158.562 73.9062C157.93 74.125 157.199 74.2344 156.371 74.2344ZM166.719 69.582L171.336 61.3203H174.441V74H171.336V65.7266L166.719 74H163.613V61.3203H166.719V69.582ZM170.762 56.3398H173.012C173.012 56.9961 172.852 57.5781 172.531 58.0859C172.211 58.5938 171.754 58.9922 171.16 59.2812C170.574 59.5625 169.879 59.7031 169.074 59.7031C167.863 59.7031 166.902 59.3906 166.191 58.7656C165.48 58.1406 165.125 57.332 165.125 56.3398H167.375C167.375 56.7539 167.504 57.125 167.762 57.4531C168.02 57.7812 168.457 57.9453 169.074 57.9453C169.691 57.9453 170.125 57.7812 170.375 57.4531C170.633 57.125 170.762 56.7539 170.762 56.3398ZM186.535 61.3203V74H183.441V61.3203H186.535ZM194.797 61.3203L189.207 69.1016H185.914L185.527 66.2656H187.812L190.895 61.3203H194.797ZM191.082 74L187.613 68.5625L190.191 66.9453L195.195 74H191.082ZM195.594 67.7891V67.543C195.594 66.6133 195.727 65.7578 195.992 64.9766C196.258 64.1875 196.645 63.5039 197.152 62.9258C197.66 62.3477 198.281 61.8984 199.016 61.5781C199.75 61.25 200.586 61.0859 201.523 61.0859C202.477 61.0859 203.32 61.25 204.055 61.5781C204.797 61.8984 205.422 62.3477 205.93 62.9258C206.438 63.5039 206.824 64.1875 207.09 64.9766C207.355 65.7578 207.488 66.6133 207.488 67.543V67.7891C207.488 68.7109 207.355 69.5664 207.09 70.3555C206.824 71.1367 206.438 71.8203 205.93 72.4062C205.422 72.9844 204.801 73.4336 204.066 73.7539C203.332 74.0742 202.492 74.2344 201.547 74.2344C200.609 74.2344 199.77 74.0742 199.027 73.7539C198.285 73.4336 197.66 72.9844 197.152 72.4062C196.645 71.8203 196.258 71.1367 195.992 70.3555C195.727 69.5664 195.594 68.7109 195.594 67.7891ZM198.688 67.543V67.7891C198.688 68.3438 198.742 68.8633 198.852 69.3477C198.961 69.832 199.129 70.2578 199.355 70.625C199.582 70.9922 199.875 71.2812 200.234 71.4922C200.602 71.6953 201.039 71.7969 201.547 71.7969C202.047 71.7969 202.477 71.6953 202.836 71.4922C203.195 71.2812 203.488 70.9922 203.715 70.625C203.949 70.2578 204.121 69.832 204.23 69.3477C204.34 68.8633 204.395 68.3438 204.395 67.7891V67.543C204.395 66.9961 204.34 66.4844 204.23 66.0078C204.121 65.5234 203.949 65.0977 203.715 64.7305C203.488 64.3555 203.191 64.0625 202.824 63.8516C202.465 63.6328 202.031 63.5234 201.523 63.5234C201.023 63.5234 200.594 63.6328 200.234 63.8516C199.875 64.0625 199.582 64.3555 199.355 64.7305C199.129 65.0977 198.961 65.5234 198.852 66.0078C198.742 66.4844 198.688 66.9961 198.688 67.543ZM217.344 70.3438L220.906 61.3203H223.496L218.398 74H216.301L211.215 61.3203H213.816L217.344 70.3438ZM213.055 61.3203V74H209.949V61.3203H213.055ZM221.691 74V61.3203H224.797V74H221.691ZM236.387 61.3203V63.7695H230.188V61.3203H236.387ZM231.008 61.3203V74H227.902V61.3203H231.008ZM238.73 61.3203V74H235.613V61.3203H238.73ZM248.527 71.3047V65.457C248.527 65.0273 248.453 64.6562 248.305 64.3438C248.156 64.0312 247.93 63.7891 247.625 63.6172C247.32 63.4453 246.934 63.3594 246.465 63.3594C246.051 63.3594 245.688 63.4297 245.375 63.5703C245.07 63.7109 244.836 63.9102 244.672 64.168C244.508 64.418 244.426 64.707 244.426 65.0352H241.32C241.32 64.5117 241.445 64.0156 241.695 63.5469C241.945 63.0703 242.301 62.6484 242.762 62.2812C243.23 61.9062 243.789 61.6133 244.438 61.4023C245.094 61.1914 245.828 61.0859 246.641 61.0859C247.602 61.0859 248.457 61.25 249.207 61.5781C249.965 61.8984 250.559 62.3828 250.988 63.0312C251.426 63.6797 251.645 64.4961 251.645 65.4805V71.0117C251.645 71.6445 251.684 72.1875 251.762 72.6406C251.848 73.0859 251.973 73.4727 252.137 73.8008V74H248.984C248.836 73.6797 248.723 73.2734 248.645 72.7812C248.566 72.2812 248.527 71.7891 248.527 71.3047ZM248.961 66.2773L248.984 68.1172H247.027C246.543 68.1172 246.117 68.168 245.75 68.2695C245.383 68.3633 245.082 68.5039 244.848 68.6914C244.613 68.8711 244.438 69.0898 244.32 69.3477C244.203 69.5977 244.145 69.8828 244.145 70.2031C244.145 70.5156 244.215 70.7969 244.355 71.0469C244.504 71.2969 244.715 71.4961 244.988 71.6445C245.27 71.7852 245.598 71.8555 245.973 71.8555C246.52 71.8555 246.996 71.7461 247.402 71.5273C247.809 71.3008 248.125 71.0273 248.352 70.707C248.578 70.3867 248.699 70.082 248.715 69.793L249.605 71.1289C249.496 71.4492 249.332 71.7891 249.113 72.1484C248.895 72.5078 248.613 72.8438 248.27 73.1562C247.926 73.4688 247.512 73.7266 247.027 73.9297C246.543 74.1328 245.98 74.2344 245.34 74.2344C244.52 74.2344 243.785 74.0703 243.137 73.7422C242.488 73.4141 241.977 72.9648 241.602 72.3945C241.227 71.8242 241.039 71.1758 241.039 70.4492C241.039 69.7773 241.164 69.1836 241.414 68.668C241.664 68.1523 242.035 67.7188 242.527 67.3672C243.02 67.0078 243.629 66.7383 244.355 66.5586C245.09 66.3711 245.93 66.2773 246.875 66.2773H248.961ZM263.094 66.5234V68.9492H256.59V66.5234H263.094ZM257.562 61.3203V74H254.457V61.3203H257.562ZM265.262 61.3203V74H262.145V61.3203H265.262ZM271.203 69.582L275.82 61.3203H278.926V74H275.82V65.7266L271.203 74H268.098V61.3203H271.203V69.582ZM284.867 69.582L289.484 61.3203H292.59V74H289.484V65.7266L284.867 74H281.762V61.3203H284.867V69.582Z"
              fill="white"
            />
          </g>
          <defs>
            <filter
              id="filter0_d_2569_36"
              x="81.623"
              y="100.352"
              width="187.9"
              height="27.0859"
              filterUnits="userSpaceOnUse"
              color-interpolation-filters="sRGB"
            >
              <feFlood flood-opacity="0" result="BackgroundImageFix" />
              <feColorMatrix
                in="SourceAlpha"
                type="matrix"
                values="0 0 0 0 0 0 0 0 0 0 0 0 0 0 0 0 0 0 127 0"
                result="hardAlpha"
              />
              <feOffset />
              <feGaussianBlur stdDeviation="0.5" />
              <feComposite in2="hardAlpha" operator="out" />
              <feColorMatrix type="matrix" values="0 0 0 0 0.2 0 0 0 0 0.2 0 0 0 0 0.2 0 0 0 0.3 0" />
              <feBlend mode="normal" in2="BackgroundImageFix" result="effect1_dropShadow_2569_36" />
              <feBlend mode="normal" in="SourceGraphic" in2="effect1_dropShadow_2569_36" result="shape" />
            </filter>
            <filter
              id="filter1_d_2569_36"
              x="42.0391"
              y="29.9375"
              width="265.121"
              height="48.8594"
              filterUnits="userSpaceOnUse"
              color-interpolation-filters="sRGB"
            >
              <feFlood flood-opacity="0" result="BackgroundImageFix" />
              <feColorMatrix
                in="SourceAlpha"
                type="matrix"
                values="0 0 0 0 0 0 0 0 0 0 0 0 0 0 0 0 0 0 127 0"
                result="hardAlpha"
              />
              <feOffset />
              <feGaussianBlur stdDeviation="0.5" />
              <feComposite in2="hardAlpha" operator="out" />
              <feColorMatrix type="matrix" values="0 0 0 0 0.2 0 0 0 0 0.2 0 0 0 0 0.2 0 0 0 0.3 0" />
              <feBlend mode="normal" in2="BackgroundImageFix" result="effect1_dropShadow_2569_36" />
              <feBlend mode="normal" in="SourceGraphic" in2="effect1_dropShadow_2569_36" result="shape" />
            </filter>
            <linearGradient
              id="paint0_linear_2569_36"
              x1="405.366"
              y1="31.6208"
              x2="7.5598"
              y2="18.4017"
              gradientUnits="userSpaceOnUse"
            >
              <stop offset="0.19" stop-color="white" stop-opacity="0" />
              <stop offset="1" stop-color="white" />
            </linearGradient>
            <linearGradient
              id="paint1_linear_2569_36"
              x1="108.181"
              y1="-36.5772"
              x2="326.358"
              y2="124.79"
              gradientUnits="userSpaceOnUse"
            >
              <stop offset="0.46" stop-color="white" stop-opacity="0" />
              <stop offset="1" stop-color="white" />
            </linearGradient>
            <linearGradient
              id="paint2_linear_2569_36"
              x1="122.68"
              y1="33.8003"
              x2="283.613"
              y2="153.758"
              gradientUnits="userSpaceOnUse"
            >
              <stop stop-color="white" stop-opacity="0" />
              <stop offset="1" stop-color="white" />
            </linearGradient>
            <linearGradient
              id="paint3_linear_2569_36"
              x1="228.029"
              y1="135.168"
              x2="571.962"
              y2="85.7995"
              gradientUnits="userSpaceOnUse"
            >
              <stop stop-color="white" stop-opacity="0" />
              <stop offset="1" stop-color="white" />
            </linearGradient>
            <linearGradient
              id="paint4_linear_2569_36"
              x1="74.0816"
              y1="56.8129"
              x2="268.849"
              y2="169.603"
              gradientUnits="userSpaceOnUse"
            >
              <stop offset="0.3" stop-color="white" stop-opacity="0" />
              <stop offset="1" stop-color="white" />
            </linearGradient>
            <linearGradient
              id="paint5_linear_2569_36"
              x1="75.8475"
              y1="150.751"
              x2="-36.2762"
              y2="71.7073"
              gradientUnits="userSpaceOnUse"
            >
              <stop stop-color="white" stop-opacity="0" />
              <stop offset="1" stop-color="white" />
            </linearGradient>
          </defs>
        </svg>