<svg width="8" height="15" viewBox="0 0 8 15" fill="none" xmlns="http://www.w3.org/2000/svg">
<path d="M6.74786 0H1.25047C0.56246 0 0 0.562437 0 1.25042V13.7496C0 14.4376 0.56246 15 1.25047 15H6.74953C7.43754 15 8 14.4376 8 13.7496V1.25042C7.99833 0.562437 7.43587 0 6.74786 0ZM3.24922 0.99933H4.74911C4.88638 0.99933 4.99854 1.11148 4.99854 1.24874C4.99854 1.38601 4.88638 1.49816 4.74911 1.49816H3.24922C3.11195 1.49816 2.99979 1.38601 2.99979 1.24874C2.99979 1.11148 3.11195 0.99933 3.24922 0.99933ZM3.99916 14.4978C3.58401 14.4978 3.24922 14.163 3.24922 13.7479C3.24922 13.3328 3.58401 12.998 3.99916 12.998C4.41431 12.998 4.74911 13.3328 4.74911 13.7479C4.74911 14.163 4.41431 14.4978 3.99916 14.4978ZM7.49948 12.4992H0.500523V2.49916H7.49948V12.4992Z" fill="#404040"/>
</svg>
