<svg width="19" height="22" viewBox="0 0 19 22" fill="none" xmlns="http://www.w3.org/2000/svg">
<path d="M9.53852 10.5974C10.9944 10.5974 12.2551 10.0753 13.2852 9.04502C14.3153 8.01495 14.8374 6.7546 14.8374 5.29854C14.8374 3.84299 14.3153 2.58247 13.285 1.55207C12.2548 0.522167 10.9943 0 9.53852 0C8.08246 0 6.8221 0.522167 5.79203 1.55223C4.76196 2.5823 4.23962 3.84282 4.23962 5.29854C4.23962 6.7546 4.76196 8.01512 5.7922 9.04519C6.82244 10.0751 8.08296 10.5974 9.53852 10.5974Z" fill="#404040"/>
<path d="M18.8102 16.9168C18.7804 16.4881 18.7204 16.0205 18.6319 15.5267C18.5426 15.0292 18.4276 14.5589 18.29 14.1291C18.1478 13.6848 17.9545 13.246 17.7155 12.8256C17.4674 12.3892 17.176 12.0092 16.849 11.6965C16.5071 11.3693 16.0885 11.1063 15.6045 10.9145C15.1221 10.7236 14.5875 10.627 14.0156 10.627C13.7911 10.627 13.5739 10.7191 13.1544 10.9922C12.8963 11.1605 12.5943 11.3552 12.2573 11.5706C11.9691 11.7542 11.5787 11.9263 11.0965 12.082C10.626 12.2343 10.1483 12.3115 9.67681 12.3115C9.20533 12.3115 8.72781 12.2343 8.25684 12.082C7.77512 11.9264 7.38471 11.7544 7.09685 11.5708C6.76301 11.3574 6.46088 11.1627 6.19888 10.992C5.77993 10.7189 5.56257 10.6268 5.33799 10.6268C4.76597 10.6268 4.23155 10.7236 3.74933 10.9146C3.2656 11.1062 2.84682 11.3692 2.50459 11.6966C2.17779 12.0095 1.88624 12.3893 1.6385 12.8256C1.39965 13.246 1.2063 13.6846 1.06396 14.1292C0.926497 14.5591 0.811522 15.0292 0.722228 15.5267C0.633773 16.0198 0.573684 16.4876 0.543976 16.9173C0.51477 17.3383 0.5 17.7752 0.5 18.2164C0.5 19.3648 0.865065 20.2945 1.58496 20.9802C2.29595 21.6568 3.23673 22 4.38077 22H14.9739C16.1179 22 17.0583 21.6569 17.7695 20.9802C18.4896 20.295 18.8546 19.3652 18.8546 18.2163C18.8545 17.773 18.8395 17.3357 18.8102 16.9168Z" fill="#404040"/>
</svg>
