<svg width="24" height="24" viewBox="0 0 24 24" fill="none" xmlns="http://www.w3.org/2000/svg">
    <path
        d="M18.9999 11.9996C18.447 11.9996 18 12.4477 18 12.9996V20.9999C18 21.5509 17.5519 21.9999 17.0001 21.9999H3C2.44794 21.9999 2.00006 21.5509 2.00006 20.9999V6.99939C2.00006 6.44841 2.44794 5.99942 3 5.99942H11.0001C11.553 5.99942 12 5.55134 12 4.99944C12 4.44736 11.553 3.99929 11.0001 3.99929H3C1.34601 3.99929 0 5.34534 0 6.99939V20.9999C0 22.6539 1.34601 24 3 24H17.0001C18.6541 24 20.0001 22.6539 20.0001 20.9999V12.9996C20.0001 12.4466 19.5529 11.9996 18.9999 11.9996Z"
        fill="white"
    />
    <path
        d="M9.37592 11.0886C9.30597 11.1586 9.25891 11.2476 9.23895 11.3435L8.53198 14.8798C8.49902 15.0437 8.55103 15.2127 8.66895 15.3317C8.76398 15.4267 8.89197 15.4776 9.02307 15.4776C9.05493 15.4776 9.08807 15.4747 9.12103 15.4677L12.6561 14.7607C12.754 14.7406 12.843 14.6937 12.912 14.6236L20.824 6.71135L17.289 3.17639L9.37592 11.0886Z"
        fill="white"
    />
    <path
        d="M23.2679 0.731301C22.2931 -0.243767 20.707 -0.243767 19.7329 0.731301L18.349 2.11526L21.884 5.65041L23.2679 4.26627C23.74 3.79531 24 3.16723 24 2.49924C24 1.83125 23.74 1.20318 23.2679 0.731301Z"
        fill="white"
    />
</svg>