<svg width="24" height="24" viewBox="0 0 24 24" fill="none" xmlns="http://www.w3.org/2000/svg">
<path d="M13 7C13 6.44772 12.5523 6 12 6C11.4477 6 11 6.44772 11 7V11H7C6.44772 11 6 11.4477 6 12C6 12.5523 6.44772 13 7 13H11V17C11 17.5523 11.4477 18 12 18C12.5523 18 13 17.5523 13 17V13H17C17.5523 13 18 12.5523 18 12C18 11.4477 17.5523 11 17 11H13V7ZM6 1H18C20.7614 1 23 3.23858 23 6V18C23 20.7614 20.7614 23 18 23H6C3.23858 23 1 20.7614 1 18V6C1 3.23858 3.23858 1 6 1Z" stroke="#404040" stroke-width="2" stroke-linecap="round"/>
</svg>
