<svg width="32" height="32" viewBox="0 0 32 32" fill="none" xmlns="http://www.w3.org/2000/svg">
    <path
        d="M25.3333 15.9995C24.5959 15.9995 24 16.5969 24 17.3328V27.9999C24 28.7345 23.4026 29.3332 22.6667 29.3332H4C3.26392 29.3332 2.66675 28.7345 2.66675 27.9999V9.33252C2.66675 8.59787 3.26392 7.99922 4 7.99922H14.6667C15.4041 7.99922 16 7.40179 16 6.66593C16 5.92982 15.4041 5.33239 14.6667 5.33239H4C1.79468 5.33239 0 7.12712 0 9.33252V27.9999C0 30.2053 1.79468 32 4 32H22.6667C24.8721 32 26.6667 30.2053 26.6667 27.9999V17.3328C26.6667 16.5954 26.0706 15.9995 25.3333 15.9995Z"
        fill="white"
    />
    <path
        d="M12.5012 14.7848C12.408 14.8781 12.3452 14.9968 12.3186 15.1247L11.376 19.8397C11.332 20.0582 11.4014 20.2836 11.5586 20.4423C11.6853 20.569 11.856 20.6368 12.0308 20.6368C12.0732 20.6368 12.1174 20.6329 12.1614 20.6237L16.8748 19.681C17.0054 19.6541 17.124 19.5916 17.2161 19.4981L27.7654 8.94847L23.052 4.23518L12.5012 14.7848Z"
        fill="white"
    />
    <path
        d="M31.0239 0.975068C29.7241 -0.325023 27.6094 -0.325023 26.3105 0.975068L24.4653 2.82034L29.1787 7.53388L31.0239 5.68836C31.6533 5.06041 32 4.22298 32 3.33232C32 2.44167 31.6533 1.60424 31.0239 0.975068Z"
        fill="white"
    />
</svg>