<svg width="14" height="14" viewBox="0 0 14 14" fill="none" xmlns="http://www.w3.org/2000/svg">
<path d="M7.6 4.08333C7.6 3.75196 7.33137 3.48333 7 3.48333C6.66863 3.48333 6.4 3.75196 6.4 4.08333V6.4H4.08333C3.75196 6.4 3.48333 6.66863 3.48333 7C3.48333 7.33137 3.75196 7.6 4.08333 7.6H6.4V9.91667C6.4 10.248 6.66863 10.5167 7 10.5167C7.33137 10.5167 7.6 10.248 7.6 9.91667V7.6H9.91667C10.248 7.6 10.5167 7.33137 10.5167 7C10.5167 6.66863 10.248 6.4 9.91667 6.4H7.6V4.08333ZM3.5 0.6H10.5C12.1016 0.6 13.4 1.89837 13.4 3.5V10.5C13.4 12.1016 12.1016 13.4 10.5 13.4H3.5C1.89837 13.4 0.6 12.1016 0.6 10.5V3.5C0.6 1.89837 1.89837 0.6 3.5 0.6Z" stroke="#404040" stroke-width="1.2" stroke-linecap="round"/>
</svg>
