<svg width="18" height="14" viewBox="0 0 18 14" fill="none" xmlns="http://www.w3.org/2000/svg">
    <path
        d="M1.56515 0.72625C0.7009 0.72625 0 1.42711 0 2.29199C0 3.15624 0.7009 3.85651 1.56515 3.85651C2.4294 3.85651 3.1303 3.15624 3.1303 2.29199C3.1303 1.42711 2.4294 0.72625 1.56515 0.72625ZM1.56515 5.43516C0.7009 5.43516 0 6.13544 0 7.00031C0 7.86456 0.7009 8.56542 1.56515 8.56542C2.4294 8.56542 3.1303 7.86456 3.1303 7.00031C3.1303 6.13544 2.4294 5.43516 1.56515 5.43516ZM1.56515 10.1435C0.7009 10.1435 0 10.8443 0 11.7086C0 12.5729 0.7009 13.2737 1.56515 13.2737C2.4294 13.2737 3.1303 12.5729 3.1303 11.7086C3.1303 10.8443 2.4294 10.1435 1.56515 10.1435ZM16.8231 1.11446H5.68964C5.03972 1.11446 4.5127 1.64148 4.5127 2.29199C4.5127 2.94195 5.03968 3.46893 5.68964 3.46893H16.8231C17.4729 3.46893 18 2.94195 18 2.29199C18 1.64148 17.4729 1.11446 16.8231 1.11446ZM16.8231 5.82278H5.68964C5.03972 5.82278 4.5127 6.34977 4.5127 7.00031C4.5127 7.65027 5.03968 8.17726 5.68964 8.17726H16.8231C17.4729 8.17726 18 7.65027 18 7.00031C18 6.34977 17.4729 5.82278 16.8231 5.82278ZM16.8231 10.5317H5.68964C5.03972 10.5317 4.5127 11.0586 4.5127 11.7086C4.5127 12.3585 5.03968 12.8855 5.68964 12.8855H16.8231C17.4729 12.8855 18 12.3585 18 11.7086C18 11.0586 17.4729 10.5317 16.8231 10.5317Z"
        fill="white"
    />
</svg>