<svg width="100" height="100" viewBox="0 0 100 100" fill="none" xmlns="http://www.w3.org/2000/svg">
<g clip-path="url(#clip0_2937_527)">
<path d="M85 100H15C6.716 100 0 93.284 0 85V15C0 6.716 6.716 0 15 0H85C93.284 0 100 6.716 100 15V85C100 93.284 93.284 100 85 100Z" fill="white"/>
<path d="M28.049 60.004H27.732L18.644 40.004H23.506L28.05 50.544L32.63 40.004H37.138L28.049 60.004Z" fill="#404040"/>
<path d="M33.0291 59.995L42.852 40.131H43.1421L52.747 59.995H47.9401L46.7161 57.192H38.9061L37.6541 59.995H33.0291ZM40.2301 53.873H45.2911L42.7971 47.841L40.2301 53.873Z" fill="#404040"/>
<path d="M55.097 59.995V40.004H59.6961V55.859H67.206V59.995H55.097Z" fill="#404040"/>
<path d="M69.464 59.995V40.004H81.328V43.977H73.927V47.823H80.267V51.769H73.927V55.941H81.437V59.995H69.464Z" fill="#404040"/>
</g>
<defs>
<clipPath id="clip0_2937_527">
<rect width="100" height="100" fill="white"/>
</clipPath>
</defs>
</svg>
