<svg
    width="386"
    height="162"
    viewBox="0 0 386 162"
    fill="none"
    xmlns="http://www.w3.org/2000/svg"
>
    <g filter="url(#filter0_i_333_241)">
        <path
        d="M115.064 97.877V125.807H2.48633L0.337891 103.678L63.1797 2.59375H91.7539L60.709 53.4043L34.9277 97.877H115.064ZM99.2734 2.59375V159H63.0723V2.59375H99.2734ZM248.689 66.5098V95.084C248.689 106.327 247.364 116.103 244.714 124.41C242.136 132.717 238.412 139.592 233.542 145.035C228.744 150.478 223.015 154.524 216.355 157.174C209.695 159.824 202.354 161.148 194.333 161.148C187.888 161.148 181.872 160.325 176.286 158.678C170.7 156.959 165.652 154.381 161.14 150.943C156.7 147.434 152.868 143.066 149.646 137.838C146.423 132.61 143.952 126.451 142.234 119.361C140.515 112.2 139.655 104.107 139.655 95.084V66.5098C139.655 55.1947 140.945 45.4193 143.523 37.1836C146.172 28.8763 149.932 22.0013 154.802 16.5586C159.672 11.1159 165.437 7.06966 172.097 4.41992C178.757 1.77018 186.098 0.445312 194.118 0.445312C200.564 0.445312 206.543 1.30469 212.058 3.02344C217.644 4.67057 222.693 7.2487 227.204 10.7578C231.716 14.1953 235.547 18.528 238.698 23.7559C241.921 28.9837 244.392 35.1784 246.111 42.3398C247.829 49.4297 248.689 57.4863 248.689 66.5098ZM212.488 99.4883V61.8906C212.488 56.8776 212.201 52.5091 211.628 48.7852C211.127 45.0612 210.339 41.9102 209.265 39.332C208.262 36.7539 207.009 34.6771 205.505 33.1016C204.001 31.4544 202.282 30.2728 200.349 29.5566C198.487 28.7689 196.41 28.375 194.118 28.375C191.254 28.375 188.676 28.9837 186.384 30.2012C184.164 31.347 182.266 33.209 180.691 35.7871C179.115 38.3652 177.898 41.8027 177.038 46.0996C176.251 50.3965 175.857 55.6602 175.857 61.8906V99.4883C175.857 104.573 176.107 109.013 176.609 112.809C177.182 116.533 177.969 119.719 178.972 122.369C180.046 124.947 181.335 127.06 182.839 128.707C184.343 130.283 186.062 131.428 187.995 132.145C189.929 132.861 192.042 133.219 194.333 133.219C197.126 133.219 199.633 132.646 201.853 131.5C204.073 130.354 205.971 128.492 207.546 125.914C209.193 123.264 210.411 119.791 211.198 115.494C212.058 111.126 212.488 105.79 212.488 99.4883ZM385.699 97.877V125.807H273.121L270.972 103.678L333.814 2.59375H362.388L331.343 53.4043L305.562 97.877H385.699ZM369.908 2.59375V159H333.707V2.59375H369.908Z"
        fill="url(#paint0_linear_333_241)"
        fill-opacity="0.9"
        />
    </g>
    <defs>
        <filter
        id="filter0_i_333_241"
        x="0.337891"
        y="0.445312"
        width="387.361"
        height="162.703"
        filterUnits="userSpaceOnUse"
        color-interpolation-filters="sRGB"
        >
        <feFlood flood-opacity="0" result="BackgroundImageFix" />
        <feBlend mode="normal" in="SourceGraphic" in2="BackgroundImageFix" result="shape" />
        <feColorMatrix
            in="SourceAlpha"
            type="matrix"
            values="0 0 0 0 0 0 0 0 0 0 0 0 0 0 0 0 0 0 127 0"
            result="hardAlpha"
        />
        <feOffset dx="2" dy="2" />
        <feGaussianBlur stdDeviation="2" />
        <feComposite in2="hardAlpha" operator="arithmetic" k2="-1" k3="1" />
        <feColorMatrix type="matrix" values="0 0 0 0 0.304167 0 0 0 0 0.304167 0 0 0 0 0.304167 0 0 0 0.25 0" />
        <feBlend mode="normal" in2="shape" result="effect1_innerShadow_333_241" />
        </filter>
        <linearGradient
        id="paint0_linear_333_241"
        x1="-6"
        y1="213"
        x2="431.031"
        y2="79.4941"
        gradientUnits="userSpaceOnUse"
        >
        <stop stop-color="#F72B26" />
        <stop offset="1" stop-color="#FA3E2C" />
        </linearGradient>
    </defs>
</svg>